<mxfile host="app.diagrams.net" modified="2024-06-05T23:34:11.102Z" agent="Mozilla/5.0 (Windows NT 10.0; Win64; x64) AppleWebKit/537.36 (KHTML, like Gecko) Chrome/125.0.0.0 Safari/537.36" etag="7MVYRfmwFAwQJmP2vIZZ" version="24.4.10" type="github">
  <diagram name="Страница — 1" id="xUySMfsnhKhZzz5eeIjE">
    <mxGraphModel dx="2785" dy="1415" grid="1" gridSize="10" guides="1" tooltips="1" connect="1" arrows="1" fold="1" page="1" pageScale="1" pageWidth="827" pageHeight="1169" math="0" shadow="0">
      <root>
        <mxCell id="0" />
        <mxCell id="1" parent="0" />
        <mxCell id="J7oyf5A0tCKoRQKSAwki-1" value="Задача 1. Напишите псевдокод по блок-схеме&amp;nbsp;" style="text;html=1;align=center;verticalAlign=middle;resizable=0;points=[];autosize=1;strokeColor=none;fillColor=none;fontSize=21;" vertex="1" parent="1">
          <mxGeometry x="150" y="35" width="440" height="40" as="geometry" />
        </mxCell>
        <mxCell id="J7oyf5A0tCKoRQKSAwki-2" value="" style="shape=image;verticalLabelPosition=bottom;labelBackgroundColor=default;verticalAlign=top;aspect=fixed;imageAspect=0;image=data:image/jpeg,/9j/4AAQSkZJRgABAQEAYABgAAD/2wBDAAIBAQIBAQICAgICAgICAwUDAwMDAwYEBAMFBwYHBwcGBwcICQsJCAgKCAcHCg0KCgsMDAwMBwkODw0MDgsMDAz/2wBDAQICAgMDAwYDAwYMCAcIDAwMDAwMDAwMDAwMDAwMDAwMDAwMDAwMDAwMDAwMDAwMDAwMDAwMDAwMDAwMDAwMDAz/wAARCAGrAvYDASIAAhEBAxEB/8QAHwAAAQUBAQEBAQEAAAAAAAAAAAECAwQFBgcICQoL/8QAtRAAAgEDAwIEAwUFBAQAAAF9AQIDAAQRBRIhMUEGE1FhByJxFDKBkaEII0KxwRVS0fAkM2JyggkKFhcYGRolJicoKSo0NTY3ODk6Q0RFRkdISUpTVFVWV1hZWmNkZWZnaGlqc3R1dnd4eXqDhIWGh4iJipKTlJWWl5iZmqKjpKWmp6ipqrKztLW2t7i5usLDxMXGx8jJytLT1NXW19jZ2uHi4+Tl5ufo6erx8vP09fb3+Pn6/8QAHwEAAwEBAQEBAQEBAQAAAAAAAAECAwQFBgcICQoL/8QAtREAAgECBAQDBAcFBAQAAQJ3AAECAxEEBSExBhJBUQdhcRMiMoEIFEKRobHBCSMzUvAVYnLRChYkNOEl8RcYGRomJygpKjU2Nzg5OkNERUZHSElKU1RVVldYWVpjZGVmZ2hpanN0dXZ3eHl6goOEhYaHiImKkpOUlZaXmJmaoqOkpaanqKmqsrO0tba3uLm6wsPExcbHyMnK0tPU1dbX2Nna4uPk5ebn6Onq8vP09fb3+Pn6/9oADAMBAAIRAxEAPwD8pPi1/wAlV8Tf9ha6/wDRz1z1dD8Wv+Sq+Jv+wtdf+jnrnq96OyOAKKKKoQUUUUAFFFFABRRRQAUUUUAFFFFABRRRQAUUUUAFFFFAHV+BP+RY1T/r6tv/AECertUvAn/Isap/19W3/oE9Xa4a/wAZ00/hCiiisSwooooAKKKKACiiigAooooAKKKKACiiigAooooAKKKKACiiigAooooAKKKKACiiigAooooAKKKKACiiigAooooAKKKKACiiigAoq7oulLqbztLL5FvaxedM4TewXcqjC5GSWZR1HXrVj7Jon/QQ1X/wXR//AB6gDKorV+yaJ/0ENV/8F0f/AMeo+yaJ/wBBDVf/AAXR/wDx6gDKorV+yaJ/0ENV/wDBdH/8eo+yaJ/0ENV/8F0f/wAeoAyqK0NW0mK0tILq1ne4tbhnjVpIvLdXTaWBUFh0dTkE9az6ACiitDSdJiu7Se6up3t7W3ZI2aOLzHZ33FQFJUdEY5JHSgDPorV+yaJ/0ENV/wDBdH/8eo+yaJ/0ENV/8F0f/wAeoAyqK1fsmif9BDVf/BdH/wDHqPsmif8AQQ1X/wAF0f8A8eoAyqK1fsmif9BDVf8AwXR//Hqr61pS6Y8DRS+fb3UXnQuU2MV3MpyuTghlYdT060AUqKKKACiuw+HPw5t/F2nTXNzNMiJJ5SrEQDkAEkkg+oro/wDhSOlf8/Gof9/E/wDia/WMh8F+J83wFPMsJCHs6ivG80na9r2PjMx49yjA4mWFrSfNHR2izyyivU/+FI6V/wA/Gof9/E/+Jo/4UjpX/PxqH/fxP/ia9f8A4l84v/kp/wDga/yOH/iJuSfzS/8AATyyivU/+FI6V/z8ah/38T/4mj/hSOlf8/Gof9/E/wDiaP8AiXzi/wDkp/8Aga/yD/iJuSfzS/8AATyyivU/+FI6V/z8ah/38T/4mj/hSOlf8/Gof9/E/wDiaP8AiXzi/wDkp/8Aga/yD/iJuSfzS/8AATyyivU/+FI6V/z8ah/38T/4mj/hSOlf8/Gof9/E/wDiaP8AiXzi/wDkp/8Aga/yD/iJuSfzS/8AATyyivU/+FI6V/z8ah/38T/4mj/hSOlf8/Gof9/E/wDiaP8AiXzi/wDkp/8Aga/yD/iJuSfzS/8AATyyivT7v4IaebZ/IubxZcfIXZSufcBR/OvMK+F4x4AzjhiVKOaxS9rflcZKSfLa/wB11959FkXEuBzdTeCbfJa91be9vyYUUUV8Ue+FFFFAGR8Wv+Sq+Jv+wtdf+jnrnq6H4tf8lV8Tf9ha6/8ARz1z1elHZHIFFFFUIKK3fhj8N9a+MfxH0Hwl4bsv7R8QeJ9Qg0rTLTzo4ftNzPIscUe+RlRdzsoyzBRnkgV9O3X/AAQe/a2s/Bmta+/wY1w6doElzHdhNRsHuGNuzLL5MAnM04yjbTCjiQYKFgQSpvkh7Sei7vbS1/uuvvRUYyk7RV/+Dt99n9x8i0V9RaL/AMEWf2ofEXwGX4l2fwg1+Xwi9idTSf7VaLeSWwG7zFsjMLpgV5GIiSOQCK8b/Zv/AGXfiB+158S4PB/w28K6p4t8Q3CNL9ls1UCGNesksjlY4kBIG+RlXJAzkihO83TW63XVev3Ml6RU3s+vQ4GivsDxF/wQQ/a38K+IbbTL74O6hFcXdtPdxyLremSWoSFd0gadbkxK+3kIzh2AYqp2nHI+CNP8fX//AATE8Z3tj8H/AIYaj8O7HxPb2mpfES40+3PinSrxjA6WcM5nEwhYFAQsLLiVwWGTjJ16ai3zLS3XvLlX47d3otSuSV0rb3/BX/rstdj5tor6r+FH/BEj9qL44eHPDuseFvhTe6rpPivR4te0u9XWNNit57OTHluzvcKsbMDkRyFZCATt4OPEv2lP2XfH/wCx/wDFK58F/EnwxqHhTxLaxpO1pdFHEkT52yRyRs0cqHBG5GZcqwzkEC/aQvy311/Df7uoKLa5ktP89jgaK9F/Zj/ZP+IH7ZPxEn8KfDfQD4k8QW2nzarJaC9t7TbbQ7fMffPJGhxuX5QdxzwDXt2r/wDBC39rLQ/hO/jS4+C3iJdDjtPtzol3ZyagsWM82KzG63AdU8rcO4onOMFebt/T/wAn9zFFOT5Y6v8A4b/Nfej5Mor0yy/Y++Iup/svX3xntvDwufhtpeqrol7q8WoWrmyvG27Y5bcSeemd6YZowp3rzyKP2ff2PfiL+1LonjHUvA3h9dX034faW2teIbybUbWxt9LtAGJkeS4ljU8I5CqSx2tgHBpuSXNf7Or8tL69tHf01Cz089F5u9tPnp66HmdFFFUIKKKKAOr8Cf8AIsap/wBfVt/6BPV2qXgT/kWNU/6+rb/0CertcNf4zpp/CFFFFYlhRRRQAUUUUAFFFFABRRRQAUUUUAFFFFABRRRQAUUUUAFFFFABRRRQAUUUUAFFFFABRRRQAUUUUAFFFFABRRRQAUUUUAFFFFAGr4e/5BGu/wDXiv8A6UwVlVq+Hv8AkEa7/wBeK/8ApTBUXhKG2uPFWmJelBZvdxLcF22qIy43ZPYYzSA9Z8B/8E5Pj58UPCVpr3h/4OfEjVdG1CMTWl7b+H7kw3UZGQ8bbMOpHRlyD2rx/WNHu/D2r3Vhf2txY31jM9vc21xEYpreVCVdHRgCrKQQQRkEGv2C/wCC9P8AwVH+Mv7KX7bVl4N+FHxFfw14XtfCtjO1jp1pZyxxzyPOScvExBMYiwM4C7cDnn8hfF3i3UvH3izU9d1m8n1HV9au5b++u5jmS6nlcvJIx7szMSfc0otvVjPX3/4JoftDJ4WXWv8AhSfxQOmNALoTL4cum/dEbg+0Juxjnp0rxB0MTlWBVlOCCMEGv03/AOCRv/BX/wCPnxO/b7+Ffgzx18Vr7U/Beq3kmn3dpqFvaKk4+yTCFWl8oPuMojwd2S2Bk55+Nv8AgpamlJ/wUK+Nf9iNaPpbeNdVeA2rK0JBupCdhXjG4npxQm72YHkt5/yJGn/9f11/6Lt6yq1bz/kSNP8A+v66/wDRdvWVVCCtWz/5EjUP+v61/wDRdxWVWrZ/8iRqH/X9a/8Aou4pAZVFFfTvhDwZ8NP2r/2Zfh98P/h74D8TRftNw62+mldPkM+n+LrGTzZvtExkfEEkIwpI2qERmYlT+6APGNd/Z08Z+GvgRoXxNvdEkg8DeJdRn0nTdUM8RW5uoBmWPyw5kXAz8zKFODgnBria/Tbxr/wSe+PXi39mjSPgXZ/Fv4AeKtV8A6hea/D8OtK8SRHxHb3MiHzozujUsy/P8rsqgs3zEBcfJvxsvPg78Of2RfDvgTS/B3iX/hfMetTz+NtZ1ovbDQzA0sI0y3gDbWB+VnZ13Bk6nIWNJjPnutXxD/yCNC/68W/9KZ6yq1fEP/II0L/rxb/0pnqhGVRRRQB6n8EP+RUuP+vtv/QErsa474If8ipcf9fbf+gJXY1/pD4Uf8khgP8Ar2vzZ/K3Gf8AyO8T/iCiiiv0M+YCiv0N/wCCJ/wF+GvxL+Efxk8TfEHwTpXjIeDraG9t4rtMsirFNI6oc4BbYOa7X4ofs0/Aj9tz9gLxz8WPh38MNZ+Ems+B4XuYJJ90drqqRoHZVUO0cikZG5VDBsckcV+Y5h4oYPBZtUyyvh6nLTnTpyqLlcFKqk4XXNzW11tF2PrMv4Sr4zCQxNKpFSmpuMHe75Pi1tb72j8vaK9R+MP7GHxK+AeoeErXxb4b/sqfx1Gsuhr/AGhaz/blYoFOYpWCZMiff29fY12MP/BLT48T/GW5+H6eBC3i+00tdal08azp+VtGcoJPM8/yzlhjaG3e1fZT4myeFKNaeLpKElJp+0jZqLtJp3s1F6SeyejPDjlWNlJwjRm2uW65Xdc3w9PtfZ79D59or3z4yf8ABL/48fAD4bT+LvFnw71HTfD1qA1xdR3lrdG2UnG6SOGV5EX1LKAO5FeB12Zdm2BzCm62ArQqxTs3CSkr9rxbV/IxxWBxOFkoYmnKDeqUk1p31CiiivQOUK+e6+hK+e6/k36UP/Ms/wC43/uI/aPCH/mL/wC4f/t4UUUV/Jp+0BRRRQBkfFr/AJKr4m/7C11/6Oeuerofi1/yVXxN/wBha6/9HPXPV6UdkcgUUUVQj3H/AIJk/wDKRz4C/wDZQdC/9OEFfeXhn9qLx54s/wCDpWJ73xLqrxWPj+88JW9sLmQW8WmJ5kH2YR7toQqisy4wZPnxnmvy5+GPxJ1r4OfEfQfFvhu8/s7xB4Y1CDVdMu/Jjm+zXMEiyRSbJFZG2uqnDKVOOQRXWaZ+138Q9H/ajPxot/EPl/EttZk8QHWPsFsf9OkZmeXyDH5HJYnb5e3npWynHmouW0HNv/t72a/KMk/XzZNdOWCr0Kek58vK+1lPfru4vrtfoj9Gv2Ov2m/Hnj7/AIOgb06p4n1e5huPGXiLww9sblxb/wBm20d6kFqI87fKQQRMFxjcgb73NaP7K+la9oP7Bn7dtj8CoLu2+L1n4+ME0OhKy6tF4dW7ZdtqE+cAAXY/d/NgHHO2vzV8A/te/ET4YftPn4zaH4h+w/EltUu9aOsfYLaX/S7rzfPk8h4zB83nSfL5e0buAMDEvwf/AGzvih8AfjxefE3wZ4y1Tw7421K4nubzUbMRoLxp3Mkolh2+TIjOd3lshTIBCjAx4/1Kco04OVlGDi7d+aElp1i3GSlqtJPuzqlXftZVV1kpW9FNfJpSXK9bWXY/SL/g2G/4XJ/wt34q+Z/wk/8Awqn/AIRe/wD7Y+3eZ9g/tbcvlbN/H2n/AF+/bzjO/wDhrxr4Df8AKtd8cv8Asq2mf+ibGvM/EX/Be/8Aa38VeIbbU774xahLcWltPaRxrommR2pSZdshaBbYRM+3gOyF1BYKw3HPgWg/tV+PvDH7NeufCCx17yPh34k1aLXNS0n7Fbt9pvIwipL5xjMy4EafKrhTt5HJoxmGq177L+F/5JV5307aL7vMmlKMGvWb/wDAocq/Hf7/ACPvL/gsV8a/FXh3/gnJ+xF4O07XNRsPDeofDq31a7sraZoo7u5ijtVikkwfmMfJXPQsT1q5/wAFbvBviv8Aai/Ze/4J+RWMOoeLfiH478Gz6YjySCS81WfOnrEHlcgk7pGJZ2wNzMSPmNfAPxp/ar8fftDeDPAvh7xhr39r6R8NdJGh+G7f7Fb2/wDZ1mNoEW6KNWk+4vzSFm469a6HVf8AgoF8X9ZT4SibxlOD8DFCeB2hsLWF9DAaJsBkiBm5giz5xkyFIPBYHfDYdpr22v72U3bflfOl81GSXbS17JGUpzUbU+lNRXa/uP7rxb76n3J/wb7fAfx9+zF/wV78ZeBPEejf2B8QfDvgjVoHsLiaKYW9yy2skOXjZo2Uh42yrEEMDmvKP2Av+Gp/+Hw/hzzf+Fkf8LL/AOEotf8AhNft3n7vsH2gfavtmfk+zeV5u3PyY2+XztrrP+CLf7bLeLv+Conjj4qfGv4g6HYax4n8F6rHea7rt7a6VDdXJS3jijUny4lbZGFVEA4TgcV4rq//AAXS/ay1z4Tv4LuPjT4ibQ5LT7C7paWceoNFjHN8sIutxHV/N3HuadN1YYiFZpOShG6+zfmnez1aT+0rO6ttbU5YSp1Kauoym/W3LC1118tVZ33vp9r/AAN+Mfw28T/8Fd/2p/2ajdW0fwg/aLvr3Rbdoz+4sNfjUss8OflUm6Nwq44LiDHAFeefts+Crv8A4I9f8En9L+AU0sEPxa+PGsT614yltZMm20i1l8uCAMCDtkKJgEEEG5Hevkb/AIJO/Dbwp8S/2+PAD+O/GugeAvCXhvUE8Rapq2razDpSbLRhMkMcsjrmWSRY0AQ78MzD7tQ/8FUv21Ln9vv9uTxt8QvNlbRZ7r+ztAif/l302DKQADAwXG6Vh2aVqxlhXCFHDp3vFKb7xptct/Ny++MbbWv0wr81WrWa0UnKPlOaal90Un5Sd+5870UUV6ByhRRRQB1fgT/kWNU/6+rb/wBAnq7VLwJ/yLGqf9fVt/6BPV2uGv8AGdNP4QooorEsKKKKACiiigAooooAKKKKACiiigAooooAKKKKACiiigAooooAKKKKACiiigAooooAKKKKACiiigAooooAKKKKACiiigAooooA1fD3/II13/rxX/0pgrKrV8Pf8gjXf+vFf/SmCovCepx6L4q028mBaG0u4ppABklVcE/oKQE/jf4f698MtfbSvEmiav4f1RI0maz1KzktLhUdQyMUkAbaykEHGCCCKyK/cj/gr/8A8EgfiT/wVE/aS0L4ufCPXfAGp+DtT8KWVtb3FzqskbXDJJO+9NkTqyFZUwd3XIIGK/FD4i+A9R+FnxB13wxrEccWr+HNRuNLvo45VlRJ4JGikCupKsAynBBweopRlcZX8JeENW8f+JbLRdC0vUda1jUpRBaWFhbPc3N1IeiRxoCzsfQAmodd0K98L63eabqdndadqOnTvbXdpdRNDPbSoxV43RgGV1YEFSAQQQa/X7/gld/wQb+Nf7LX7YXw3+LnjS88B2Phbw552p30cWrvNdRI9lMijAi8skNIuT5m0AEgnAz+b3/BRrx7pPxR/b4+MfiDQbuHUNG1bxhqdxZXcLBorqI3L7ZUI6qwG4HuCKFK7sgPLLz/AJEjT/8Ar+uv/RdvWVWref8AIkaf/wBf11/6Lt6yqoQVq2f/ACJGof8AX9a/+i7isqtWz/5EjUP+v61/9F3FIDof2dNd8CeGvjPol78TdC1rxL4GgeQ6ppuk3gtLy5UxOI9kp4XEpjY9MqpGRnNfoB/wSe8a/DTxb+3r8W7P4F6RrHgHVfFXwq1XSvh1Dr+qJcXdvrhiibKS5+ViUd1+YkKknIB2j8ya+hNQ+NXwk+Hf7HXgnS/Afh/xLD8eF1o63rnjae7e0OiiJ5FgtdPEUnIK+W7OwDBgeuVEaaGZH7O/7O/xo1H9s/QfCfhPQfFWmfFjTNcidEe3lhu9JuUlBNxOSAY0QgszsQAASTivrD/gor8Xf2bov+CxXxt1H4h+D/Enjrwuy2llEnhjVUsgmqw21vHdOxyN2HSVGww+dXJBzkHxd/4KK/tixf8ABNzwf8Q9R+NqHwv461i98MJFZabbWutoLdDlnukgVxu2uNyOH4UljuOPmX4m/E34HfEL9h3wnY2PhPWfDPx18M6i1rqGoWshn0/xTZSF5Gurhnbck6sQoCjv3UgRrVsDxX4iXuial8QNduPDNje6Z4bn1C4k0mzvJxPcWloZGMMckgADusZUMwAyQT3qPxD/AMgjQv8Arxb/ANKZ6yq1fEP/ACCNC/68W/8ASmerEZVFFFAHqfwQ/wCRUuP+vtv/AEBK7GuO+CH/ACKlx/19t/6AldjX+kPhR/ySGA/69r82fytxn/yO8T/iCiiiv0M+YP1E/wCDf/xfdfD/AOAH7QGu2Qia80axivoBKuULxwXDruHGRkDPNepfthfF7xN/wVT/AOCaTeJfhBrU9rNpeG8Y+EIVVri5CDc8QbG/Ckb1AOJFHqMV+Vfwd/aq+IHwA8L+IdF8H+JbrRNM8Vw/Z9WgihicXke1lwS6sR8rsPlI60n7Pv7VHxB/ZW1681L4f+KL/wANXeowi3umgVJEnQHIDJIrKcHocZGTjrX4dnPhVicTn2I4kw8qf1hVKU6PMm42jBRnGorO12rxlG7i0mrM/QMq4xp4XLqWWTUvZ2qKpbR2m7xcHfeOt07J3s7o/T7/AIKE/s0eN/2mvEf7JureCdAvvEGj2tnaJeX1pGZILAZtZd8zDiNNiP8AM2BlcdSBX0Jp85tP+Cx/ieRfvRfC23YfUXjV+OHhH/gpf8dvAeiX+m6P8Ste06w1GeS5lghESojyHc5iGz90CSTiPaMk8c1Gv/BSH42r8V7nxx/wn2o/8JVeaYNHm1D7Lbb5LQNuEW3y9mNxJzjPvXzmI8IeIK2EWAnWo+zp061OD9/mftaineXu20tbT166epQ40yylUddQnzydHm+G1qNlpru1366X6n3d/wAEs/jb4s+PHh39qy28Y6/qniO1bTbi5W3v7hp4oWdboNsViQi4VRhcD5R6V+UNeh/CP9q34g/AeLxKnhLxLdaMvi+E2+sCOGJ/tyHdkNvRsffb7uOteeV+u8M8KzyrM8dio8qp1/ZcsY6W5IcsrqySu9rX03Pjs3zqONwdCg7uUJVW2+qnJNdb6W1Ciiivtz5wK+e6+hK+e6/k36UP/Ms/7jf+4j9o8If+Yv8A7h/+3hRRRX8mn7QFFFFAGR8Wv+Sq+Jv+wtdf+jnrnq6H4tf8lV8Tf9ha6/8ARz1z1elHZHIFFFFUIKKKKACiiigAooooAKKKKACiiigAooooAKKKKACiiigDq/An/Isap/19W3/oE9XapeBP+RY1T/r6tv8A0CertcNf4zpp/CFFFFYlhRRRQAUUUUAFFFFABRRRQAUUUUAFFFFABRRRQAUUUUAFFFFABRRRQAUUUUAFFFFABRRRQAUUUUAFFFFABRRRQAUUUUAFFFFAGr4e/wCQRrv/AF4r/wClMFZVWtJ1Z9JmdlSOVJUMcsUgJSVcg4OCD1APBByBVv8A4SG0/wCgFpX/AH8uf/jtICPS/Fuq6JbGGy1PULSEnJjguHjUn6A4rPJ3HJrU/wCEhtP+gFpX/fy5/wDjtH/CQ2n/AEAtK/7+XP8A8doAjn8X6tdab9jk1PUZLMKEEDXLmPA6DbnGBWdWr/wkNp/0AtK/7+XP/wAdo/4SG0/6AWlf9/Ln/wCO0AF5/wAiRp//AF/XX/ou3rKq7qutNqccUSwQWtvBuKQw7toLY3HLEsScDqewqlTAK1bP/kSNQ/6/rX/0XcVlVd0rWm0yOWJoILq3n2l4Zt20lc7TlSGBGT0Pc0gKVFav/CQ2n/QC0r/v5c//AB2j/hIbT/oBaV/38uf/AI7TAkvfiJ4g1LwRZeGbjXdYn8N6ZcyXlnpMl7I1jaTyACSWOEtsR2AAZgATgZNY1av/AAkNp/0AtK/7+XP/AMdo/wCEhtP+gFpX/fy5/wDjtIDKrV8Q/wDII0L/AK8W/wDSmej/AISG0/6AWlf9/Ln/AOO1U1bVn1aZGZI4kiQRxRRghIlyTgZJPUk8knJNMCrRRRQB6n8EP+RUuP8Ar7b/ANASuxrxbwr4+vvCEMkdt5LxStuKSqSAemRgj2/Ktf8A4Xdqv/Pvp/8A37f/AOKr+xOAPG3hrK+HsLl2Nc1Upx5XaF1o3s0z8N4l4AzbGZnWxWHUXGbutbHqVFeW/wDC7tV/599P/wC/b/8AxVH/AAu7Vf8An30//v2//wAVX2P/ABMHwh/PU/8AAH/meF/xDLO/5Y/+BHqVFeW/8Lu1X/n30/8A79v/APFUf8Lu1X/n30//AL9v/wDFUf8AEwfCH89T/wAAf+Yf8Qyzv+WP/gR6lRXlv/C7tV/599P/AO/b/wDxVH/C7tV/599P/wC/b/8AxVH/ABMHwh/PU/8AAH/mH/EMs7/lj/4EepUV5b/wu7Vf+ffT/wDv2/8A8VR/wu7Vf+ffT/8Av2//AMVR/wATB8Ifz1P/AAB/5h/xDLO/5Y/+BHqVFeW/8Lu1X/n30/8A79v/APFUf8Lu1X/n30//AL9v/wDFUf8AEwfCH89T/wAAf+Yf8Qyzv+WP/gR6lXz3XXXfxn1a6tnjCWcRcY3ojbl+mWI/SuRr8B8bvEPKeKJYNZVzNUfaczkrfHyWtr/dd/VH6T4f8MY3KFXeMt7/AC2s7/Dzf5hRRRX4QfowUUUUAZHxa/5Kr4m/7C11/wCjnrnq6H4tf8lV8Tf9ha6/9HPXPV6UdkcgUUUVQgooooAKKKKACiiigAooooAKKKKACiit7xb8LvE3gHRtF1HXfDuu6Lp/iS2+26RdX9hLbQ6rBx+9t3dQsqcj5kJHI5pNpbgYNFFFMAooooA6z4d7LrR9StvtFnDM80Eqi4uY4AyqsoOGcgHBdeM55ra/sFv+f7Q//Bva/wDxyvOaKwnRUnc0jOysejf2C3/P9of/AIN7X/45R/YLf8/2h/8Ag3tf/jlec0VP1Zdyvas9G/sFv+f7Q/8Awb2v/wAco/sFv+f7Q/8Awb2v/wAcrzmij6su4e1Z6N/YLf8AP9of/g3tf/jlH9gt/wA/2h/+De1/+OV5zRR9WXcPas9G/sFv+f7Q/wDwb2v/AMco/sFv+f7Q/wDwb2v/AMcrzmij6su4e1Z6N/YLf8/2h/8Ag3tf/jlH9gt/z/aH/wCDe1/+OV5zRR9WXcPas9G/sFv+f7Q//Bva/wDxyj+wW/5/tD/8G9r/APHK85oo+rLuHtWejf2C3/P9of8A4N7X/wCOUf2C3/P9of8A4N7X/wCOV5zRR9WXcPas9G/sFv8An+0P/wAG9r/8co/sFv8An+0P/wAG9r/8crzmij6su4e1Z6N/YLf8/wBof/g3tf8A45R/YLf8/wBof/g3tf8A45XnNFH1Zdw9qz0b+wW/5/tD/wDBva//AByj+wW/5/tD/wDBva//AByvOaKPqy7h7Vno39gt/wA/2h/+De1/+OUf2C3/AD/aH/4N7X/45XnNFH1Zdw9qz0b+wW/5/tD/APBva/8Axyj+wW/5/tD/APBva/8AxyvOaKPqy7h7Vno39gt/z/aH/wCDe1/+OUf2C3/P9of/AIN7X/45XnNFH1Zdw9qz0b+wW/5/tD/8G9r/APHKP7Bb/n+0P/wb2v8A8crzmij6su4e1Z6N/YLf8/2h/wDg3tf/AI5R/YLf8/2h/wDg3tf/AI5XnNFH1Zdw9qz0b+wW/wCf7Q//AAb2v/xyj+wW/wCf7Q//AAb2v/xyvOaKPqy7h7Vno39gt/z/AGh/+De1/wDjlH9gt/z/AGh/+De1/wDjlec0UfVl3D2rPRv7Bb/n+0P/AMG9r/8AHKP7Bb/n+0P/AMG9r/8AHK85oo+rLuHtWejf2C3/AD/aH/4N7X/45R/YLf8AP9of/g3tf/jlec0UfVl3D2rPRv7Bb/n+0P8A8G9r/wDHKP7Bb/n+0P8A8G9r/wDHK85oo+rLuHtWejf2C3/P9of/AIN7X/45R/YLf8/2h/8Ag3tf/jlec0UfVl3D2rPRv7Bb/n+0P/wb2v8A8co/sFv+f7Q//Bva/wDxyvOaKPqy7h7Vno39gt/z/aH/AODe1/8AjlH9gt/z/aH/AODe1/8Ajlec0UfVl3D2rPRv7Bb/AJ/tD/8ABva//HKP7Bb/AJ/tD/8ABva//HK85oo+rLuHtWejf2C3/P8AaH/4N7X/AOOUf2C3/P8AaH/4N7X/AOOV5zRR9WXcPas9G/sFv+f7Q/8Awb2v/wAco/sFv+f7Q/8Awb2v/wAcrzmij6su4e1Z6N/YLf8AP9of/g3tf/jlH9gt/wA/2h/+De1/+OV5zRR9WXcPas9G/sFv+f7Q/wDwb2v/AMco/sFv+f7Q/wDwb2v/AMcrzmij6su4e1Z6N/YLf8/2h/8Ag3tf/jlH9gt/z/aH/wCDe1/+OV5zRR9WXcPas9G/sFv+f7Q//Bva/wDxyj+wW/5/tD/8G9r/APHK85oo+rLuHtWejf2C3/P9of8A4N7X/wCOUf2C3/P9of8A4N7X/wCOV5zRR9WXcPas9G/sFv8An+0P/wAG9r/8co/sFv8An+0P/wAG9r/8crzmij6su4e1Z6N/YLf8/wBof/g3tf8A45R/YLf8/wBof/g3tf8A45XnNFH1Zdw9qz0b+wW/5/tD/wDBva//AByj+wW/5/tD/wDBva//AByvOaKPqy7h7Vno39gt/wA/2h/+De1/+OUf2C3/AD/aH/4N7X/45XnNFH1Zdw9qz0b+wW/5/tD/APBva/8Axyj+wW/5/tD/APBva/8AxyvOaKPqy7h7Vno39gt/z/aH/wCDe1/+OUV5zRR9WXcPas6H4tf8lV8Tf9ha6/8ARz1z1dD8Wv8Akqvib/sLXX/o5656t47IyCiiiqEFdN8G/Efhzwj8U9C1Pxf4el8V+GbK7SXUdIivWsm1CEdYxMoJTPqB7ZGcjmaKabTuhNJqzP0E/wCCr3xrX9of/gn7+y54ti8PaL4StNQl8SxWejaTF5dnpltDeRQQwoOM7Y40BbA3Nk4GcD8+6+sf2sPiN4e8R/8ABMH9lrQNP13Rr/XfD0niU6rptvexy3emebqAeLz4lYvFvX5l3gbhyM18nVMoRhXrRhtzzt6czsddeXNSpf4f/bpBRRRTOU+z/wDgn5+wT8I/j9+yJ8Sfiz8V/Gfinwfo/wANdasYLyTSlhm+02sykGKOJomY3EkpiRG3bF3EsrYp37X37D3wTtv2JfDPx4+A3inx/f8Ahq78TnwprWkeMktf7RsbowtMpDWyLGMIoJHzgiRSGGCKrfs7/E/w1on/AARf/aH8LXniHQ7TxPrXinQLjTtImv4o7+/ijnjMjwwFvMkVACWKggY5pui/FLw3a/8ABCm+8JnxBof/AAlh+MyaquiG/iGovaDSkT7QIN3meVvG3ft254zmrhGPt5zm7Rg6WndP2Sn66Slotmr73Kyte0glV3ftv/Jfa8n/AKTH1WnYyP2y/wBhXwl+zv8A8FPNN+Cui6j4juvC15qOhWj3V9cQvqAS+jtmlIdIljyDM2393xgZDc59w1D/AIJR/BHwF+0B+1Lpni7xX8RdP8C/s+R6JeW9zaTWU2pX8N0geaFg0KxvM5IjiI8tVZ1LbgMV6j+0v8O/gh+05+2p4P8A2pF/aO+F+i+CorbR9b1jw5caiG8VQ3FikIFpDYgb2L+SqksQVJY4Zea539sL9obwD4p8W/8ABQuXTfG/hDUI/G1r4THh1rbWbeUa8YZITMLQq588xgHf5e7bg5xXlyqVYqK+0lO/qnHl8n1t3R2U6dKtWhFaQl7Fdt1afpruyL4nf8EZfgDo1z428NeGPiD8TdY8dP8ADyf4o+DraS2tvsa6THDGY4L0iIPJcyS+bjyhGAm3I3DDdF+0/wCCP2dtR/YX/ZC1b4+eJviTp0beBI7DSNO8F29s904LRNPdTvcKyCGMGMbVG9ixwDjFbvhX9pz4bW/7dVlq8nxC8DppK/sux+H2vW121FuNSCD/AEEyb9v2n/plnf7V578bfg78LP2+v2Qv2ZPDtj+0H8IvAXjP4d+CbeHWLTxNrSW1sIJ2UOgmBKrdwtAxNu+1iJUJKjmprKbxPs7XjCSs/wDwfC/n7qim+zctHqcuGkqlCNSStJxd/mqErf8AgTlZd/d8jxb4wf8ABHmez/4KN+A/g14A8WJrfhT4qadb+I/DniK7i3MmkyJLK8sqptDvGkMhG3aH+T7m4hffbr/ghp8LfixL4p8HfD7T/wBqnw5450Symn03xD478G/Y/COuzQqS0Ucgt0liEmCFaRhjIIEnQ5fxS/4KTfDP9nX/AIKvfA3VPCOsSeKfhr8E/B9n8PdR1qzXzF1GFYp4ZriHGfMWPzUYFPvmJtpIIJufGDwN4vttZ8U+KdD/AOClGlN8PfJuNT0izT4malN4hdCGkitG08Tg78bUzvznkov3RtiJ8tJOlJ8lp+81rpJ8jel/hs0re87rXY3Sj7W1ve/d6dNYrnX/AIFeO75VZnz9+wF/wTu+G37SP7I/xN+J/wAR/GmveBrP4Za3ZRX9zbJHNF9hdSZo1gMZd7p22xx4cKGcEq2MHyv9qjwt+ztqV94NtvgDqvxTkm1O5nttbHj02UYs/niS3eM2sYXY26VmJZiAq8A16r+zf8WPDekf8EW/2lPDGo+JdDtvFfiDxJoFzp+k3OoRJqGpJHdwNLJFCzeZIFAJYqDgAk18geDNIsvEHjHSbDU9STRdNvbyG3u9QeEzLYRO4V5igwWCKS20HJxiuyMb4p31inDTa/uRvr2bfyd2edRqf7M5db1NXrZKc1HTul96sfod+0r/AME//wBkD9i7xy/w7+Jfi39o6w8aQaUtz/wkVvo1mvhq/uDEr4tkaIzyJlgpKsyg5BkBBx+b568dO1fsx+znf2f7N2i6novxk/bC+AXxu/ZytdJnD+FbnU49d1y8/dHyEt7dg89u6MF2qkzheQEBwy/jZqLwyahO1sjR27SMYkY5KpngH3xiualJ+0abvon26vpbR+Sb0tsdrivZX2adu99N0+q77avS/SGvoaw/Zx+AlxYwvN+0j9nmdFaSL/hX2ov5bEcrkPg4PGa+ea+hrD/gqv8AHvTLGG2h8ebIbdFjjX+xNOO1VGAMm3z0FceaUsbUUfqUrPr7yX50qn6fM2wc8PGT+sK69G/ynD9Tx34teGfD3g/x5eaf4W8T/wDCYaHAE+z6t/Z0mn/acoC37mQl12sSvJ52571zddJ8Wvi54h+Ofjy88TeKdQ/tTXNQCC4ufIjg8zYgRfkjVUGFUDgdq5uu/DKpGjFVneVlfrr11Sin/wCAx9FsYYh03UbpK0enT9Zfmz9Kf+CHfxb8QfAf9in9sfxj4U1D+yvEnhzw3pl9p155Ec/2eZft21tkisjY9GUj2r4Q+L/7R3iv9oT463nxG8d3lt4p8UapcwXOoTXNnFBDfGFI40V4oFjQL5caKQoXIHqSa+zP+CTP/KNv9uP/ALFDT/8A2+r4Q8B+GofGXjPTdLuNSstHt764WGW+u3CQ2qk8uxJAwB6kfUVGMkv7RqOeypUvldSv99l9yKw8ZOnGNPdzf32jb8z6Q+DPx81z9oHR/G1h40t9Il8C6ZoU1wYo7COCHSJRgQCFgNwYnO0Ek/Lx0r5Yr6p+Kvwhs9X8L2vhHwj8SfhLpHg2xYTNHP4mX7XqtxgZuLkrGQW44UEqoAx0GPKf2TP2YLv9qv8Aay8J/Cuz1WCym8T6t/Zp1OCH7XFbxruaSdU3J5iqiMwG5cgdRXj8PKhOpUlhlyqVrR2tbS76c0uvyu73PreMp4qnQowxsud0+a9S6d27Plja75YW93zcrK1jyyiu/wD2p/g7pv7Pf7RfjLwNpPiL/hLbLwlqs2lDVxZfYxevCdkjCLzJNoEgdR87Z2574rgK96nUjUgqkNmrr5nxs4ShJwlutD2z9h/X28M+MvFd1ba1pGg6qfDlxDpt3qVzFBDFcPLCFYmT5TtwWIweAeD0rS/ayh+KepeCdIv/ABb4m0Lxl4ZNwfsmoaKYJLWObBBUvHFGc4B65HHrXmHwk+GFl8Ury+tJ/FXh/wAMXUESyW7axKYLe65wy+bghSODgg5z7V6V4/n0P4J/szX3gaDxTo3ivXfEOqxahOdImNxZWEcYAGJcAM7FRnABx24yfmsZThHMo1qaUqjcVZwu0urUullr26bn3mVVas8lqYes3Cko1JKSqWTl0jKF/e5mlGzV7O60PBqK+if2Lf2D7f8Aau+DHxp8c6n4y/4Q/R/g5oKaxMf7K+3HU5ZBN5VsP30XlljDtDfNyw+Wvnavp3JKfs3vZP5O9vvsfBWfLz9L2+as/wBV/SYV7z+wZ4+0/wAOfF7RNLTQLS41rVtQMf8Aa87l2tLfyiTHFHjCuSDmTOdrEcV4NXo37JGuWXhv9o7wpfajd2thZW92WluLmVYooh5bjLMxAA57mvOziiquBqwav7r79vLf06nscOYqWHzOhUi0veirtJ2TaT32067rdM5zXdZ/4R74s31/9ls737Hqsk32e7i82CfbKTtdeNynGCO4r6v8Ka78RtY+Gmuat8VrHTpPhzd6I09laQ2UEjBnQNAYRbgvGACPmlI25HQ9PlYaVp/jH4v3Nrd6xbaTp9/qMwOoyKZYYVLsVc7eqk457A5r3L4IeCtG/Zc8V3HirV/id4N1TTbe1mj/ALK0LUTeTasXjZVjkjAGFywbJyAVHTrXh57Tpzw0I2/eKKt7rcn5QktIyb62dux9nwxWr08zq1E37F1Hze/GMVq9akXrOCTu43in3ufMlFejfst/AS6/a0/ae8H/AA906ddKl8aazFYC4WAziwjdsvL5e5d4jTc23cudvUdaX9rr4Had+zR+0v4z8AaV4lHi+z8Iak+lnV1svsYu5Y8LLiLzJNu2Ten3znZnjOB9a5WcU93e3ytf/wBKXr02Z+aNK8lF3Ubfje338r+484rrfhP8dPFPwPvby48L6p/Zc1+ixzt9mhm8xVJIGJEYDknpXJVqeCvDyeLPF2m6bLe2mmw31ykMl3dSrFDbISA0jMxAAUZPXtWdenSnTcayTj1TV19xvhK1elWjPDScZ9GnZ3emj6H0N8R/2h/GOqfsfZ8W6z/aWoePL3y7CE2kEP2exgYeZJiNFJLyALzngAjGTXzLXpP7U/xEsvHXxQa20ZlPhzw1bR6NpIR9yGCEbd4Pfc2TnuCK9B/YI/YMg/bO0P4qa1qvjL/hB/D3wp8MyeItQv8A+yv7R87buKwBPOi2lgkhDZP3cbTmvLyfDU8PhZVuRQ5rzaStZW0Vl1UUrpbu/Vnu8U5hUxOMhhpVHU9mo01Jty5pX953e6c27P8Alt0R860UUV7R8yfVP7MPgG88C/s9x+MNFPhXTvEevX0sMWu+IJVjtNFtYvk+VmBAkeTIGAcjrwteTftYaX45tPiJbXPju/s9YvbuyRrPUbMRfZry3BJVozGiAjJPVQefTFdR4Cn0b48fs36b4Iu/FOjeFNc8KahNd2baxcG3sr6CbJYeZyFdWLcYPB46nGJ+07rui2Ph7wR4N0bWLfxF/wAIdYzRXeo253W8000vmMkbfxInQEcc/Wvj8GqkczlKavJykneLuoW91qfbZWWmr6pn6VmMqM8gjCk+WEacGrTVpVXNKcZU927OUrvVKKs7NHkVFfRWofsGQaB/wTVsP2hNU8ZfYp9d8TP4d0bw3/ZW86hsz5k/2nzhtCiOb5fKPKAbvm4+da+u5k5OPVWv80n+TX5bn5qtYqXR3/BtP8Uwr6p/Yp8J2fwn8XeF59Rijk8VeOkmaxhcc6bpywyOZiOzzFAF/wBgE5+YivmLw7qFvpPiCxuru0W/tba4jlmtWfYLlFYFoy2DjcARnB619T/CT9qv4fePf2jNN1rUvAtt4c1WcSg65d+KZmhswLd1A8tlWIAqNgHAG4Y5r53iZYieFlSpwcouMm2rdFotWna+rtd2VrO59rwQ8HSx0MRXqRjUUoKKkpW1fvSuotXS0jeyTfNdcuvhPwW/aE8Yfsr/AB0tfHXgPV/7C8VaJNcfYr77LDdeT5qSQv8Au5keNsxyOPmU4zkYIBr7R/4LhfFfX/jp8Af2SPGHiq//ALU8R+I/AU1/qN35EcH2iZ5ISz7I1VFyeyqB7V8KfFbX9G8TeOb270DRB4f012ASzF694Aw4Z/McAnccnHbNfZP/AAVo/wCTNf2LP+ybv/6HDXo4iTmsLOaaanaztdfu6rto2t+ztc+ZxKUMZXhCSkrS1V7P34a6pP70fCdFFFemcAUUUUAFFFFABRRRQAUUUUAFFFFABRRRQAUUUUAFFFFABRRRQAUUUUAFFFFABRRRQAUUUUAFFFFABRRRQAUUUUAFFFFABRRRQAUUUUAdD8Wv+Sq+Jv8AsLXX/o5656uh+LX/ACVXxN/2Frr/ANHPXPVMdkMKKKKoQUUUUAFFFFABRRRQAUUUUAFFFFABRRRQAUUUUAFFFFABRRRQAUUUUAFFFFAHsv7JH/BQL4u/sKS66/wr8W/8Is3iUQDUj/ZdlffaRD5nl/8AHzDJtx5r/dxndznArivj38e/Fn7T3xb1jx1451X+3PFWvNG9/ffZYbbzzHEkKfu4USNcJGg+VR0yeSTXH0Un70ueW+1/Lt+A9lZBXZfAP4/+Lf2YPipp3jbwNqv9h+J9IWVbO++yw3Jg82J4nISZHTJR2GduRnIwea42indr+u+4iW+vptTvZrm4lknuLh2lllkYs8jMcliTySSc5qKiikkkrIbbbuwooopiO48L/tIeNPBfwN8TfDfS9aaz8F+Mbu3vdZ09LWHN/LbndCWlKeaFU87VcKTyQa4eiil1cur/AMrfkkvQFouVbf56v73qFFFFMAooooA6/wCBHx38Vfsz/FbSfG/gnVBovijQ2kaxvfssNz9nMkTxMQkyOhJR2HKnGcjBANczq+r3Ov6tdX17PLdXl7M89xPK255pHJZmY9ySSSfeq1FJpN3e6Hd2sFFFFMQV2/gP9ozxn8MPhP4y8D6Drb6b4Y+IK2qeILSO2hLaits7SQqZShlRQzMSqMobOGBHFcRRQ9U4vZ7/AJ/mNNp3W6CiiigQUUUUAdv41/aM8Z/EP4PeEPAGr629z4P8BNdPoemrbQwx2TXMnmTMWRFeVmbndIWIyQCAcVxFFFHVy6vV+b7ju7JdgooooEdp+z5+0J4w/ZX+LmleOvAer/2F4q0TzfsV99lhuvJ82J4X/dzI8bZjkcfMpxnIwQDXU/taft3fFX9ufWdG1D4p+Kf+EovPD8MlvYSf2ZZ2XkRyMGcYtoow2So5YE8cV5FRUzipuLmruO1+m+3bd7d33Gm1e3XcKKKKoQUUUUAFFFFABRRRQAUUUUAFFFFABRRRQAUUUUAFFFFABRRRQAUUUUAFFFFABRRRQAUUUUAFFFFABRRRQAUUUUAFFFFABRRRQAUUUUAdD8Wv+Sq+Jv8AsLXX/o5656uh+LX/ACVXxN/2Frr/ANHPXPVMdkMKKKKoQV3H7OXjvwl8M/jLouu+OPCB8eeG9Nlaa50P7ebJb4hTsDyBWO0PtJXHzAYPBNcPXrf7D37IGu/t0ftI6F8OtAu7TTp9ULz3V9c8x2NtGN0su3ILsF+6gxuYgEqMsLpqTl7v9efy79CKkoqN57f1b73p57H2Z4e8a/Dn/gop+wl+0Br2r/Az4ZfCi8+FNhBq3h7XvCGljTTJO5cR2U7AATs+wKc8HzQQisFNfmxX6u/tyf8ABPD9oy9+F1v8Hfg98H7nw78DvCMhu555vEejrqHjK8QfPqV7i6DEfLmOLHygKSAQiR/lFXDQcJVJSpv3dLLr/ia6c3bey11ul1T51TSnvr6f4V3t913ppa5RRRXWYH0N+wP+wdD+2W3jjWNe8d6T8NfAfw202PU/EPiC9snvmtVldkiWO3RlaRmZG/iGMdyQDX/bH/Zc+FfwH8LeGdX+Gfx60P4x2+vyTRz29voM+jXumCMKQ0sEsjsqtuwN20kg4Bwcemf8EgPh1+0X4i8UeNtf/Z11bw82saLa20Gs+G9UvLdR4jtZmlIj8i5HkyopiYMzOjJ5o2sNxr0j/gsx+z34c+F3wD+GXiHxV4G8AfCj9oXXrydPEfhXwZeIdObT1VjHdSW0bPHBKX2j925Dbn+Z9vyc+Kcqc4puy93Tq7373urW2s1rfuaUEpcyavv6LTy2d776O6Ri/B79nG38Kf8ABKr4w+PPhf8AtGw6lFc6Lo4+IngVfA4jeJ5bjZFate3EhYBHkmIlgQB/LPYjHyZ+zB8NvAHxU+Jh0v4k/Er/AIVT4c+xyTDW/wDhHrnXczKV2Q/Z7dlf5gWO7OBt561+m37D3/BH/wCPXhX/AIJt/tG+FNW8KWOneIPi1Z+H38OWsmtWkn2lba7kmkLvHIyR/u3UjcwJzjANfHn7F/8AwSZ8afHr/goVL8DfGkB8J3/hSL+0/Fccd1b3M9rZosLlIXjdonlkE8KqQxCmTcfukVs1F4ycIyv7sXfslBOW2rUG2utti5cqwUJrfme3VWhy+Xvaq6tf5adJ8df+CW3wq8CfsO678cPA/wC0Z/wnekabqEWk6faXXgG80Aa1dtIgeG3kup90hSMu7GONwPKYEjBxj/Bv/gl94QH7PPhb4jfHH46aJ8ENO8fl5PC+nyeHbnXb/VLdWCm5eKF0MURJGGO4YIJK5GfWv+Cu37If7Ses+Hn8S6p8JP8AhXH7P/wltE03w1o8fiHS7hNIs2kSJZ5Y4bp3kuZnZDIwDHLAZIUsfpD4P/tE/tG/tLf8E8vgqf2QPGuhwa/8PtDTw1428HyJpH9opNBsigu1+3RsojdEdvvrkMMBmDAcsKjlSlUg7+8l0vGLT1dtrtLo1Hms7/EOdNxcIyVtJa9JSVvdTejsn0s5b9Uj8u/26v2LNT/Yf+LlloFzr2keLdC8Q6VBr/h3xBpZ/wBF1rTp93lTquTsJ2sCuWAxwzAgnxWvqz/grf4o+Pt18eNE0H9ofxfoXivxjomjpJEulpZBdKimkcm3lNrDEnm5TcQd2Ay4bmvlOtcO5OF5O+r89Lu2tlrbeytfYmvyqXuq2i++yv8AK+3kew/Bn9kL/hcngePW/wDhaHwf8K+ZK8X2DxF4k+w3ybTjcY/LbCnsc81j/Hz9nD/hQttpkn/CefDbxn/aTSLt8La3/aLWmwKcyjYuwNu+Xrna3pWx8Gf2vf8AhTfgePRP+FX/AAf8VeXK8v2/xF4b+3Xz7jnaZPMXKjsMcVj/AB8/aP8A+F822mR/8IH8NvBn9mtI27wton9nNd7woxKd7bwu35emNzeteVD+0frvvfwrv+Xbp5nZH6p7DX47ee/5Hm1ex/sf/Byw+I+t67rGr6Zca5p3he1SZdLgcq+pXUr7IISR0UsDnnsM8Zrxyvdf2N/ELX/hzx94Ks9Wj0XXfF1hCulXEk3krJNEzkw7+oLq5A+hrbPJ1YYGcqLs9NeyuuZ6a6Ru9NTv4UpUKmbUYYlXjd6O2rs3Fa6aysrPR9SL9rTSfFmj6bp0Wv8Aww8J+BLIzs1tcaPZxh5vlx5cs0bsrHHOCFJxnFeH19DeO/A2r/AD9k3VvDPjK4gh1jXtYt7jS9JF0lxJaJHkyz/ISFD5A6+nc1881nkVRSoSjGzUZNJxvaWid1dye7tu9U9To4soyhioTmpRlOCk4y5eaDvJcr5YxWyUl7qdpK6CiiivaPlgooooAKKKKACiiigAooooAKKKKACiiigAooooAKKKKACiiigAooooAKKKKACiiigAooooAKKKKACiiigAooooAKKKKACiiigAooooAKKKKACiiigAooooAKKKKACiiigAooooAKKKKACiiigAooooAKKKKACiiigAooooAKKKKACiiigAooooAKKKKAOh+LX/ACVXxN/2Frr/ANHPXPV0Pxa/5Kr4m/7C11/6OeueqY7IYUUUVQgooooAKKKKACiiigAooooAKKKKACiiigAooooAKKKKACiiigAooooAKKKKACiiigAooooAKKKKACiiigAooooAKKKKACiiigAooooAKKKKACiiigAooooAKKKKACiiigAooooAKKKKACiiigAooooAKKKKACiiigAooooAKKKKACiiigAooooAKKKKACiiigAooooAKKKKACiiigAooooAKKKKACiiigAooooAKKKKACiiigAooooA6H4tf8lV8Tf9ha6/9HPXPV0Pxa/5Kr4m/wCwtdf+jnrnqmOyGFFFFUIK7/8AZm1P4a6L8XbG7+LOm+KdY8GW6PJcWPh+WKK7u5AMxxl5Cu2Mtw5UhgPunNcBXof7MnwJ+IXx8+JYs/hlod3r/ifQbc64lvamIyxxwSR/vFSQgSEO6fIAxOfukZpppO72/rX5EVE3G0d+mtrvor+ex9mz/An9n39sb9g/4v8AxD8DfBzxF8DtQ+GEMd5p+r3PiS81fTvEGWYfZd1wdolbaAVjGUaSP5iDg/nfX67aF4l+O/7Uf7DHxvP7X/hSaz8K+F/DdxqfhrXNe0RNB1W31lMi3jhiRIt6s2B/q8MSq5YMRX5E1yUrqtJX0tF2vfvfXo3bbZKzW51yV6Kl5yWyW1n81rv3uugUUUV1HOeqfsr/ALIPir9rnxFq1p4fuNC0jTvD1n9v1fWdcvvsWm6VDkhWmlwxG4ggYU9CeACRoftP/sXat+y9omg6pc+M/hv400vxFJLFa3nhPXRqUQeMKXDZRCMb15AI5611v/BPnW/iv4ag8c3XgH4cwfFTwrdWttYeLvD8+nm/iu4Xd3h/dIRNvBjl2sgYKeSDxXV/t/8A7J3hb4ZfATwH8StK8FeI/hBrPi7ULiwu/A2tXjXTwJEu77VC0oE6oTgFZRnLrgAAFvmq+ZVqeaxw85pU20klZu7Tdpe9zR6NNRatva520KUZUm2m3r3tZJbO1u9727LU8W+NX7I3iT4EftKQfC3V73RLjxBPNYwLcWc0r2Ya7SN48s0avgCVd3ycYOM9/QtL/wCCWfj/AFT4ufEfwd/bvgW1u/hY1kddv7vU5bbT4orkBvPWV4RiOJMtIXCkBTtDHAP0p+2f+yF8QvjB/wAFQfCvjXw94b1DU/BGsroOrp4ihjJ0q2tYIYPOkmuP9XHtETNhmyRjAORV/wDavuHt/HH7fbRuyE2XhpSVOMqZYAR9CCQfY14q4kxFSFCNKceeVO8tL2l7SlDVdPilp/kdccBCdTlWzdJJ/wCOLcvxsfOvjr/gjr8U/h94e8X397qvgGWTwlYS6utjb6yZLzXNPiijkkvbOLywZIF8wKWfZ8wK4zjPyjX6w+HR/af7YOlQXH7+Fv2YkjKSfMpVoOQQexyfzr8nq9bhzM8TiZ1KeJabiovRW3c493/Jf5nJWp0/YQrQVnJ/+2wl+HM18kdF8KPhTr/xv8f2HhfwvYf2nruqFxa23nxw+bsjaRvnkZUGERjyR09a9lvf+CU/x806zluJvAeyKBDI7f23px2qBknAuM9K8a+FHiTQPCPj+w1DxR4b/wCEv0K3L/atI/tCTT/teY2Vf30YLptcq3A5246GvZb39o74Bz2cqQ/s2+RK6FUk/wCFg6i3lsRw2CmDg84rtzSvmMKiWDheNv5YvW771qfl0fr0WmBp4SS/2mVte7Wnypz/AK6HzxU2n2EuqX8FtAu+a4kWKNR/EzHAH5moa0fCWtDw54r0zUCu8WF3FcFf72xw2P0r23e2m5wRs5JS2Po2/wDhx8IvB3xUsPhXf6Dq19rU/lWF14mTUZEaC9mC7dlv/qygZ1HPQdd2M188/EDwfP8AD3xxq2h3JDT6TdyWrsBw+xiN344z+NfS3jn9n7xJ4x/be0/xHpunXF74X1bUbPW49XiXdZi2AjkYmT7oOFOATk8YzmvBf2ivFdv43+OnivVLRg9rd6lM0Ljo6BtoYfUDP418rkWIlOpBKo581NSnd3tO/b7PVcqstNj9C4swVOnQqt0Y0+StyU2oqPNT5Xq2vj2g+Z3fvPWzscXRRRX1Z+dhRRRQAUUUUAFFFFABRRRQAUUUUAFFFFABRRRQAUUUUAFFFFABRRRQAUUUUAFFFFABRRRQAUUUUAFFFFABRRRQAUUUUAFFFFABRRRQAUUUUAFFFFABRRRQAUUUUAFFFFABRRRQAUUUUAFFFFABRRRQAUUUUAFFFFABRRRQAUUUUAFFFFABRRRQAUUUUAFFFFAHQ/Fr/kqvib/sLXX/AKOeuerofi1/yVXxN/2Frr/0c9c9Ux2QwoooqhBWx4F+IOvfC/xLBrPhnW9X8O6xa58m+0y8ktLmHPB2yRkMM+xrHooA7j4o/tOfEn446ZBZeNfiF448YWdrJ50Nvreu3WoRQvgjcqyuwDYJGRzya4eiikklsNtvcKKKKYjo/hz8X/Fvwd1Ka88I+KPEXha7uUEc0+kalNYySqOQrNEykj2NRfEL4p+J/i5rS6l4r8R694n1FIxEt1q2oS3syoMkKHkZmxyeM96waKy9jT5/a8q5u9tfvKUpJcqeh2SftE/ECP4ff8IkvjrxivhXy/K/sYa1c/2fsznb5G/y8Z5xtqnqvxq8Za7Lrz33izxNeP4qWJdbafVJ5DrAiIMQuSWPnBCBt3524GMVzNFSsNRTuoq/ovL/ACX3IfPJWSex1kPx78c2+spqMfjTxYmoR6YNEW6XV7gTLYAYFoH37vIxx5WdntXJ0UVcacIu8UkTd2sFFFFaCCiiigDds/if4l0/w0dFg8Q65Bo7AqbCO/lW2IPJHlhtvPfisKiiojThFtxVr7ms61SaUZybS2u9vQKKKKsyCiiigAooooAKKKKACiiigAooooAKKKKACiiigAooooAKKKKACiiigAooooAKKKKACiiigAooooAKKKKACiiigAooooAKKKKACiiigAooooAKKKKACiiigAooooAKKKKACiiigAooooAKKKKACiiigAooooAKKKKACiiigAooooAKKKKACiiigAooooAKKKKAOh+LX/JVfE3/AGFrr/0c9c9XQ/Fr/kqvib/sLXX/AKOeueqY7IYUUUVQgoHNFfV//BH/AOFfw98cftMXGv8AxE8VeBNBsfA1g2saTYeLNai0mw13UlYC2hklfP7pXxI+1XOEA2sCRVRtu9ld/drp59iJy5Vpu7L5t2Xor7vodj8XP+CU+j/AP/gmdefFDxRq+uQ/Fe3uNNnn8PxyRLZ6RZ30hEEdwhjMv2gxqZCN67d6gqcZPw/X7F+Kv2Y/EHxc/wCCbnx2Pir49/s++Idf8b+OrPxBd+I7HxiZdCs2jSHFo8/lfu5dqBYosH5dgzX46V52ErTnWrKfdWXZOEHb5O+vXfqdEoctOFtd9e9pPX7remwUUUV3mR6n+yv+xR8Uv22fFF9o/wAL/CF94rvdLiWe88qaG2htEYkL5k0zpGpYg4BbJ2nAODW1+0d/wTn+NH7I/ivw7o3xF8D3Phm78Vzi20qSa/tJrS6lLKuz7TFK0KEFlyHcYBycDmvoj/gmH+z18O9G/Ys+Mfx7+KGneN/GnhnwrdW/h9vCHhzVJ9OXUjJ5btNeSQuj+Svmp/FtULISGOAPV/8AgpVqejeIv+CHPwi1Xw98LNZ+D2iXPxGdtL0DUtfvNZkjtzZXgE0c10BIsUhXcqABeMrkNk5VaijO0dUnHm/7ea66a2ae0v8AIh7y1+1zW/7dT1a7XTWritrO9r/nT8a/2dfGn7O3xlv/AIfeMNCn0nxjpksUE+miWO5cPKiPGFeFnR9yuhBRiOfWuq1r9gj4uaD+09F8GZfBtzP8TJfLP9h2d5bXkiB4hMC8kUjRIBGQzbnG0ctiv0z+HXwc0r9vj4o/sr/tRayynQvDHhq6l+JN1IwVYL3w6u+KWT3mcoxB6xqK+ff+CUP7WWqfHX/gsv4h8S6nY6tc3vxrttb0x5bK5RbrQYZ4zOs0bOVGLeK3C8HOxTtDEBSlOpzOkkpTipuVnb4fg9FO0nd3tGz2d3bSdP2y0i+S3Wzfx+b5NE0ktXv0PI/iB/wQv/an+FvgPWfE2vfC77Donh+xm1LULn/hJNIk+z28SGSR9iXRdsKpOFBJxwCa+Sq/Qj9p347fBb9mf/gnn4x+BXw2+LPiX40+IfGviyPVLu/vNEutJtvDscL5kVFuBl5Zdux2QkPvcnbwrfnvUUKkpuT+zpbRq+ib+V3b5X6l1IKMUmrS1vqnpdpejsr690raa6PhTwhq3jzX7fStD0vUdZ1S73eRZ2Ns9xcTbVLNtjQFjhVJOBwAT2rsp/2RfixbQvJJ8MPiHHHGpZmbw5eAKByST5fSs/8AZ98X6T4D+L2karrmqeMtG0u0Mvn3nhS5S31eHdC6r5EjkKMswDZPKFx3r6X1T9rr4UXOmXEcfxP/AGyZJJImVVn8R2ZiYkEAMPM+76+1eZmmOxlCoo4anzK3ZvW77HZgsPh6qvWlbXul+Z8a0+CB7qdI41LySMFVQMlieABTK1PBOqxaF4z0i9nGYbO9hnkHqqurH9BXtttK6PPik5JN2R71J+zD8NdB8Y2PgDV/FHiKP4g3sSRtcW8MR0m1upFBjgYEeYeqjIPOQflzgeA+KvDd14N8TahpN8my8024ktplHQOjFTj244r6D+KXw+1i/wD+CiloIbS4kXUdbstStpkQlXtgYnaUH+6oVsnttryf9p3WbfxB+0L4xu7Qq1vJqswVl6NhtpP4kGvmclxVWc6fPUc+empvbSV1tbZO7Vv7vqfd8UZfhqVGt7Kkqfsa3s42veUOV6u71fup3X8/axwlFFFfTnwQUUUUAFFFFABRRRQAUUUUAFFFFABRRRQAUUUUAFFFFABRRRQAUUUUAFFFFABRRRQAUUUUAFFFFABRRRQAUUUUAFFFFABRRRQAUUUUAFFFFABRRRQAUUUUAFFFFABRRRQAUUUUAFFFFABRRRQAUUUUAFFFFABRRRQAUUUUAFFFFABRRRQAUUUUAFFFFABRRRQB0Pxa/wCSq+Jv+wtdf+jnrnq6H4tf8lV8Tf8AYWuv/Rz1z1THZDCiiiqEFFFFAHcaH+0d4z8N/AXW/hjZaz5PgfxFqMWrajpv2SBvtFzEFEcnmlDKuNq8K4U45Brh6KKlRSbklq9/PRL8kl6JD6W/rv8AmFFFFUI9g/ZO/b4+Lv7DmoarcfC3xpeeFjriIl/Etrb3kFzszsZoriOSPcMnDBdwBIzgmpf2hP8AgoJ8Yv2rPCl1onxC8cX/AIo0u71xfETwXNtbqEvVt/syvGUjUxoIsqIkKx5JbZuJNeNUUpJSd5av+n+aQR93SOh6x8Mf24/ip8G/2evFPwq8NeLZ9L8BeNXkk1nS1s7aT7WZI0jkxK8ZljDJGisI3UEDnqa+hv8Agh94/wDAPw7+L3jq91zxX4V8AfEs+H3T4e+KPE5xpGjX7b1maUkiMM0bAKXyMbxg52t8Q0UNJuT6yVrrR2s1v5X0B3so9E726bp7edte5+x3x6/au1nw9+wz8X9J/aJ/ae+Bnx9vvFWhSab4T8NeCorDUpbLU2/1N6Z7aCAx+WfmO9CBtBVgflb8caKKyhS5ZOXe2ytt+b13/wAjSU7xUfXr3/TQKKKK2MwooooA9I0X9rr4j+HvA6eHbPxVfQ6TFD9njjEcRljj6BVlK+YoA4GG4HAwK84Zi7EkkknJJ70lFc9HC0aLlKlBRct7JK/rbc68Rj8ViIRp16kpKGkU22kuyvt8goooroOQKKKKACiiigAooooAKKKKACiiigAooooAKKKKACiiigAooooAKKKKACiiigAooooAKKKKACiiigAooooAKKKKACiiigAooooAKKKKACiiigAooooAKKKKACiiigAooooAKKKKACiiigAooooAKKKKACiiigAooooAKKKKACiiigAooooAKKKKACiiigAooooA6H4tf8lV8Tf9ha6/9HPXPV0Pxa/5Kr4m/wCwtdf+jnrnqmOyGFFFFUIK9Q/Yv/Zrk/bB/ag8IfDaLVv7BbxVdvbnUDaG6+yKsTys/lb038IeNy/WvL69L/Y//aZ1H9jv9ovw58R9I0zTtY1Hw28zw2l9vEEplgkhOShDAgSEgg9QKcbX1JnzOLUdz1L9pP8AZJ+APwc8DeIZfCv7TY8d+MtFmFvD4eHw71HTReSLMI5VF1JI0S7F3tnkNswOor5ir9J/gd8QPh9/wU5/Ze+N2leIfgd8Mfh54n+HHhO48V6V4o8F6R/Zu2SEMVhuMszyF8c73YMN5wGAavzYrmo+0T5Ku9k+ltbrT5p6O/qdVXkceeltzNeelnr8mndd32Ciiiug5ztvgP8AAnxR8evGsdh4b8G+NvGcVk0dxqlt4X0mbUb2C13qruEjRtpwcKWG3cRmtD9rH4faD8MP2h/Efh/wvonxF8PaHp8sSWmm+O7OO08RWwaGNmF1FGAisWZioA5Qoeprpv8Agnn8afF/wZ/a78BP4T8Ta74bOueIdO03URp17Jbi/tZLuJXhlCkCRCCflbIzg9QDXp//AAXJ/wCUt/xc/wCwnZf+kFrVU48+Jo0ekr/nBfk9PmKF7VG+nL9z5v1X5Hiuj/sP/GnxFfarbaf8IPihfXOhSLDqUVv4VvpX092jWVUmVYiY2Mbo4DYJV1PQg1wGj+DtX8Q+KodCsNK1K+1u4uPskWnW9s8t1LNnb5SxKC5fPG0DOe1frj/wUa/4KE/Fn4c/8Fm/APgPwt4x1nw14T0PUPDttNpVhceVaasbtbdp3uowAJiyTbMSbgoRSuDzXReBtBsvh5/wWr/bP8WeH9Osz4u8DeBL/XfDVusCybL6SytHknSLGWcu5Bx185gfvVxQxLt7SS93lqS8/wB2k35e9fTt1Oh0JXjSXxydJLt+92+7S/6HxH+zL/wS01DxT8EPj9r/AMWPDfxL8Aa58MvBh8S+HrS909tKXUZAJ8+alzAXkiBjUfuyh5PzV82/Cb9mn4j/AB7trubwL8P/ABt40isGCXT6DoV1qK2zEZAcwowUketfox/wTt/bB+KX7Tn/AAT9/bNsviF4t17xraaN4FmvLG61eY3U1hLcR3XmxxytlljfykPlg7F8obVHNeneMvj/APCb9jf/AIJzfsvaVqni39pLwLpnibwx/bguPhHdabYxapfnynuzeTXBEryLJIRsDbMHBBwAKnOdOdp/3EvWXO799o289NkzKCUtI95P5JQ/WV/K736/kZoPwM8beKviXJ4L0vwd4p1LxjFJJFJoVrpM82po8YJkU26oZAVAJYbeADmmeCPgl4z+JvjC88PeG/CPifxBr+npLLdaZpulT3d5bJEdsjPFGpdQhIDEgbSecV9X/wDBR3/goh4X/aL/AGrfhj8Tfgp/wsXTfGXhHS7SwutY8QWdlBqer3ttIfIuWWzdo5JGVtr/ACqGAChAvFfa3/BTmw1X9nf9hfxn8SvA/gzTvCvxT+Mq6VafGRrC+E1x4SWe0V2gWNeYRcyMPMbuZD1LBlmdeUKCqyWt3H/t69ov/C931Wm9zWNOM6/sYvopfK15L/Etl0bvtY/FQjacHgjqKSitn4eal/Y3j/Q7z+0v7F+y6hbzf2h9n+0/YNsinzvK/wCWmzG7b/FjHeumTsrmBjUV+i3/AA2j/wBXq/8AmIP/ALVXwd8ZNc/4SX4s+JNQ/tz/AISb7bqU8/8Aa/2L7F/ae6Qnz/IwPK353bMfLnFeNlmZ18VUcKtLkSX/AE8/9vpU19zb8j0sXgqVGnzwnd3/ALn/ALbOT/C3n35qvbPCn7JelSeFvD914r8faZ4S1TxZGJ9J06Wxe5MsTf6t5ZFYLEG4wTxg9c5A8Tr2/wDbehfUfib4WntI5HtL/wAM6cbAovDoVIAX8T0961zCpWdalh6U+Tm5rtJN6LbVNde2yPQyWhhlh8RjMRTVT2ajaLckvelZt8rT0Wm+7V+x5V8Q/AeofDDxtqWgarGsd/pcxhlCtlT3DA9wQQR7EVi17X/wUCmjk/aW1FVKtPDZWkdyQf8AlqIVz+hFeKVvleJliMHSrz3lFN/NHJn+Bp4LMq2Fo/DGTSvvbs/NbPzCiiiu88gKKKKACiiigAooooAKKKKACiiigAooooAKKKKACiiigAooooAKKKKACiiigAooooAKKKKACiiigAooooAKKKKACiiigAooooAKKKKACiiigAooooAKKKKACiiigAooooAKKKKACiiigAooooAKKKKACiiigAooooAKKKKACiiigAooooAKKKKAOh+LX/JVfE3/AGFrr/0c9c9XQ/Fr/kqvib/sLXX/AKOeueqY7IYUUUVQgr0L9mD9pPXf2TvjDY+M/D1poeo31nFNbyWWsWQvLG8hljMckUseQSpB7MD7157RTTaFKKkrM+qfjj/wV0+IPxf+CWrfD3RvCXws+FfhfxFJv1m28CeHf7JOrjqUmYySZUnrt2lhwSVJB+VqKKzjTjHWK3Lcm1ZhRRRVknuv7EX7eOpfsMa5qup6P8OvhN431PUHt5be88Y6A2pT6O0PmfNaOssbQl/M+cgnOxOmK6/9uP8A4KteKP2+vD8dv4r+GnwY0PV1v479/EPh/wAOy22tT7EZfJe5kuJWaI7gSvconPFfLdFEveqRqv4o2s+1rW/JFwm4X5ev/DHtPx6/bq8W/tEftfWnxq1rTvDlr4ps7rTbtLWxt5k08vYrEsQKPK0mCIV3fvOcnBXjHTwf8FT/AIp6V+3jqv7Q+lPoWi+N9bZRf2dpayHSrqHyY4Wt3ikkdzGyxISDJkMMqVIGPm+ipjFRty9L/ja/32Vyajc/j8l/4DpH7uh9nfED/guL8TvGvw98Y+ErDwT8HvBvhbx3o15pGraV4a8NyadbzvdY8y+O2cs10ACod2ZQGbKEnNch+zF/wVh+IH7NnwOb4aXXhj4Z/E/wDHcm8stC8eeH/wC17TTJSxdmhUSRkbmYthiwBJIAJOfmCikqcUmkt7fg7r7unboNybd36/fo/v69z6S1z/gpx4q8Tftj+HfjTf8Agf4XT614RtorXRtDTRZYNB04Ql2hdLeOdWLxvIzqWkOGwcfKMUPhL/wUw+JPwv8Aiv8AErxXenRfGr/F6zuLLxbpfiOCW507V0lJILRxyxsrR7iIyrjYpIHHFfPlFL2ceXltpZr5S+L7+vfTsHM7380/nHb7ugrtuckAKCc4HQUlFFaC3CiiigQV638P/wBsrxN4C8KabpLaZ4X11dDJOlXWr6d9putMzyBC+4YwemQccDoAB5JRXNisHRxMeSvHmR3YHMsVgqjq4Wbi3pp1W+vzSfqaHivxVf8AjfxJe6vqlw93qGoStNPM3V2PsOAPQDoKz6KK3hGMIqMVZI5atWdSbqVHeTd23u292woooqjMKKKKACiiigAooooAKKKKACiiigAooooAKKKKACiiigAooooAKKKKACiiigAooooAKKKKACiiigAooooAKKKKACiiigAooooAKKKKACiiigAooooAKKKKACiiigAooooAKKKKACiiigAooooAKKKKACiiigAooooAKKKKACiiigAooooAKKKKAOh+LX/JVfE3/YWuv/Rz1z1dD8Wv+Sq+Jv8AsLXX/o5656pjshhRRRVCCtXwR4J1b4k+MdM8P6DYXGq61rV1HZWNnbrukuZpGCoij1JIrKr7b/4N8/Dum61/wUl0O81Bgsmg6JqepWfyFz5625TIUdSEkkYD/Z9cU1ypOU9km38k3+hnVm4r3d20l6tpL8X69ji/2lP+CTXi/wDZL+F99r3jb4i/BbTtb0+2iuZPB6eKfM8SP5jomxLYRbXZd+5trkbVYgnFfLFfo94f8Kfs2/8ABSm1+MWjeC/h34z8KfEzw9oN/wCL9N8X6j4kmvZfFEluQ8zXlvI3k27TO4+VAQNxIZcbT+cNctGpJycam9k/k77dd01rZ6bHbVpxjG8NrtX66W+XW+l1rvoFFFFdJzBSjk19vfsd+G4PjF8DPhBfXqg2/wAKPHGoyXJyMR2otDqgLf7JlgK/ia1PjdfJB4N+LXxfjiEMnxK8BaBHHt+4JtQkEV1GvuPsb5FfLz4mUMU8K6eqfLv1c+WC2+0ryfa1tdz26OTOpRVZT0avt0Xxvf7Onqn8j5T/AGrP2f8A/hmP4033hD+1v7b+xW9tcfa/sv2bf50KS42b3xjfj73OM8dK84r9Gv2o/wBuPxd8Ff24tI8IeFo9I07Rrl9JTXEbT4ZZNcaaKFT5sjKXAWJkRdhXG09c181ftZeILr9lT/goX4t1LwCYfD91oWpGaw8q3jkjtjNbqZAsbqybT5rgDGADxjAqMkznF16dKnXguadNzT5vityp3Sj7t3JNW5tOl9Csyy+hTcp0pNKLgmrbc0W7p31+F9jx74g+GfD3hy30JtB8Tf8ACRyX+mRXWpJ/Z0ln/ZV02d9rlyfN2cfvF+U54r2/9iL9nf4U/tK6LrWja7eeP7Txzp1hearF9hktE0t7eFFKgl0eXfuPI4GCMHrWv/wVZ8UXvjfxr8LdZ1GQTahq3gDTb26kCBBJLIZXc4GAMsTwOKqf8En/APk4HxP/ANiXqn/oMdTi8bWq5FUxcZOE0pPRrRxb0uoq607LTz1HRw1KGaUaNlKMnT6PVSUel3rr3tfay0PmCivaf+Cenws0b4zftheDNB8QwxXWkTTzXM9tJyt15MEkyxkfxKWQZHdcivsLVP2p/hj4kudc0Hx98d9C8VeCLyCezXwsvwxurCPTGwREYJ1VnRojjBO7pxg4I682z6eEr+wpUXUfLzOyk9G2klyxlq7P4nFeZzYDLY4im6tSagr8utt99btaLra77Jn5qUU+dVSZwjb0DEK2Mbh64plfQnltWdj2X4LfsP8Aiv4y/AHxj8Um1Dw74U8A+CiILjWNeuJYYtQvGwVsrVYopHmuCGU7QoUbhuYV49axpLcxrJJ5UbMA77d2wZ5OO+K+8P8AgrtqB+Ef7Ln7Kfwi0byoPDVn8PrbxldfZpN0GpajfljLOeMMQVk2t6TMOK+dv2Av2svHX7H37SGka/4B1eLSNS1h49FvXks4bpZ7SaeIvHtlVguSiHcuGG3rgkHTDwlPFSpvZScUn1cW4626Skum0bbu94xEvY4dVJ78qm/SSUlb0i1v1vsjif2gvA/g/wCHXxUv9J8B+Of+FjeGbdIWtte/sWfR/tbNGrSL9mmJkTY5ZMk/NtyODXFV9qf8HCJ3f8FYPiQf+mOl/wDputq+zP8AgoZ/wVA+IH7FH7bvw48G/De18NaLp2u6LoGpeKZpNIhnuvEzyxrbiOeVwXEaQRRqvllGBB5I4rjwtV1Y0kviqNRV+7Tert2T6HTjVChKV9ow5nb0j57+93t6Lb8X693/AGOf2J/+Gs/h38Zdf/4Sb+wP+FR+D7jxZ5H9nfav7W8oMfs+7zU8rO37+Hxn7pr9GrH4BeA/h5/wXp/aD19PCGnX1j8LfA118QtK0QW6m0fU1s7OTcIgNuTJcSuBjiRgwwQMYf7Hf/BSb4ift8/sk/teQ/E0aLq2q6D8MdUudM1W00qGymtLaaKYPZFogA8QKxsm8FxtbLNmj27dBVIrV03P0+JK3dpxb1srLzsLE4adJrmdk5xin3vyN6dLxklfdN+Vz8iqK/an4K+KvBH/AAT3/wCCdvwIbRPj5of7PPiH4n6Q/iXV9Yf4ZzeLr7xLITGxiMq5SGOASCPYVJ5BUr8xb5O/4Ka/tjfDmw/bA+GHxl/Z88b6frHj7SrCObxRq+leG7vQLS+1SFgPtBtZ1B/0hGdZEDuCo2sxySbdZKuqXTmcW7N2te77WumtWne2mplBOVF1OtuZLve1l62d9mrX1Pgeiv2g/aWj0X9jv9mDxB+2T4C8D61oHxL+PekWVnFayW6fZ/h9PfRuby/T+JftBRTGzD78g6CQpX4xXNzJeXDyyu8ssrF3d2LM7Hkkk9SaIVJOcqbVnHSXlLql3SVtet9tC+WPs1Ui9Jax849321ura7b7DKBzVjSYra41S2S8mltrN5VWeaKLzXijJG5lTK7iBkgZGcYyOtfacPgu1+FPw/TXv2bPD+g/EK4t4hJe+J7hxqniPSW6ZXTJI0FrhtwDrHKSoyW71w5lmccJypxu5aJvSK/xSei8t2+iZ04PByxDaTtb5t+iWr/q7R8UXdpLp908M8UkM0TFXjkUqyEdQQeQajq/4o13UPFHiS/1HVp57rVL64ee7mnP7yWVmJdm9ySc1Qr0oczinLc5ZqKk1Hbz3Civ2D/Y3/a61jxd+yT8JvBH7LnxZ+Fnwy8eeHdPW18T+B/Fukw2k/jHUiSGmhvJY3WdpSMrGhVxkbmXAUfnX8YfjJ8V/gP+3nr/AI31mzt/Anxd0LxDLqFxbwadAIdLvMk/u4WDxMmGBU/OrKQ2WzuMKp+/9lJWWuvXRrVLZrXo9NL7k8rdD2kdZaadLtPRvdPS23e17HGfFjwB4I8IeBvBN/4X+IH/AAl+ta5p7XHiHSv7CuNP/wCEYuQV223nSErdZBY74wANvvXB1+jf/BeP4r618dfgt+yX4z8Rzx3WveKPh+2p6hLHEsSSTym3dyEUAKMk8Csr/gjz+1D+0lqEX/CB+Cvimnw3+C3gKObX/Fes3GhaZc2/h+yZ2kmfzbi3dmlkIcRoWOTnA2qcZYWs6tOc5acspp3eiUZtPW21l2v3u9QqWhy21uo+ruk1p3bfp27H580V+jGu/tEaF/wWh/4LY/DW316x2fD5LuPRLGC5AS41SwtRPc5uduFD3EgbKqFCrIFHI3H7K8X/APBQT4K+G/jd4q8G/Ej9p7wbq/wmtZrzQL34Vj4H31vaaZHGXhWCO8jV38yJlX95hkJQlUTKlX7eXs4y5felzaa7K3lfW66adbGkoxVVwTuly3em7ve2tnaz1vr08vxp/ZQ/Zh1H9rz4sQeCtE8R+E9A8QahEx0uLXruW1j1acfdtYZEidRM/RRIUVjxuyQK4vx/4B1n4WeNtV8N+ItNutH13RLp7O+srlNsttMh2srD2I6jg9RxVjxZeWXhL4p6lP4Q1K7bTdM1WWTRdQUvDOYo5ibeYZCsr7QjdAQewNfZf/Bdewg8ZfEb4LfFU29pZaz8XvhnpOva3DFw73vl7WmYYHDJ5ag9/K6DHN+0bhTrRVlJ2aeju05R/CMlJPsvMI0nzVIN35VdNbWTUX97aafrfofClFFffX/BESx0z4aeDv2ivjcdG07XPFnwa8GC/wDDUWoQCe3tbufzh9oK9dyiEDIIO13GRnNXUqRp05VZ7RTf3K5lq5KK3bS+92PnX4A/sa/8Lz/ZL+NnxR/4SP8Asv8A4U7FpMv9mf2f5/8Aa/264eDHm+Yvk7Nm77j7s4+XrXh9fqv4N/b38bft3/8ABHz9q2/+I0emal4s8PR6FAdfttMhsZtQtZdRDRW8ohVUfyWWTadoIWbnJJJsfto/t0eMv+COln8HvhF8DYPDOhaMPBuneJ9fv5dJgu5PF13cmQSmZ3UkxnyuqFXw2AwVQKKsnGq4tW+BJbr3oczd97O19m03ZKx08sHh4zjvepd+UfZq1tt5abab9j8oKK+1f+C6Xwk8MeA/2o/CXijwtoln4ag+KngnTfGF/pVmgS3s7y48wS+WoACq2wMQAMsWPeviqlTk2veVmm015p2f4owklZSi7qSUl6SSkvwaCiiitCQooooAKKKKACiiigAooooAKKKKACiiigAooooAKKKKACiiigAooooAKKKKACiiigAooooAKKKKACiiigAooooAKKKKACiiigAooooAKKKKACiiigAooooAKKKKAOh+LX/JVfE3/YWuv/Rz1z1dD8Wv+Sq+Jv8AsLXX/o5656pjshhRRRVCCu8/Zl/aL8R/sm/HTw98QfCksMWt+HLjzoVnTfDcIylJIpFyCUdGZTgg4bgg4NcHRVRk4u6FKKkrM+3/AInf8FcvCD/Dr4hWPws/Z+8M/CrxX8UrSTT/ABF4ht9cl1B5LaUYnjt4DDGluJOchDt5ztLYYfEFFFYQpQhrHyXyWyXZeSNZVJSVpPz+b3fm9Fr5BRRRWpmevfAD9rO6+A/wd+I3hKLSRqA8eWaWsV0bvyjpTiOaJ5FXY28tHMy9VxjrUnjD9rm68W/sg+GvhSdIEP8Awj+oG7k1X7Xua8iDXDxwmLYNoRrhsHeenQV47RXnTyrCTq+3lD3uaMr6/FFWi9+i+XzOunjq8IKnCVklJfKXxL59T1r48ftRf8Lt/aag+I39h/2Z5ElhJ/Z/23zt32VI1x5vlr97y8/c4z3xWl4t/ah8K/FH9qzxF8RPGPw5HiLSNeAYaAdeltRbyiOJFf7RFGGbHln5dgB3+1eJ0URyrCxjGMItcsXBWck1F2urp3+ytd9Nxzx1ebbk73cW9FvFNLp0Temz63Pp39pD9ub4d/tD+CorGX4Jx6ZrOl6THo+i6oPFlxKdKhjyIx5QhRZQuTw5Oc8moP2Uv23/AAH+zB4diKfBxNZ8Uy2U9hqGtnxTPAb6GViWXyDE6RjbtX5f7uepr5porm/1fwX1Z4S0vZt3a55//JXs76rZvVq5p/amJ9rGvdc0dnyx8rdOllZ9Oh6j4p/aA0nQ/jro3jb4YeEh8NzonlTQ2K6rLqatcK7FpC8gU7XVghjA24B/vGvQfG37Z/w08bLqmrS/ADw3F411eCQT6oNcuWshcSKQ062O3ywdxLAbs55LE81820VtUyfC1FHmTvFWT553t2b5ryXk2yaeYV4Scota6/DG111tayfogooor1DhPvPxfr2m/wDBTD/gm/4K0/T76zt/jV+zhp0mnPo886wyeKPD3y7JLUMf3s1uEQNGDuIDEAl0FfPn7EX7Rfwx/Zu8XahrHxF+DEXxfmzbyaOkvii50VdIljLl3xFG6zb9ycOMKY8jk14fRUxTjUlUi7czv83u12u9fVt9bIdpUlTkr20+XRPvbb0sntr9mf8ABR7/AIKY/C//AIKAW2qa1F+zzB4M+Jmpy25bxanjW5vn8qIIhja1+zxRPmNFQMeV6jmvO/22v29f+Gxv2nvDPxH/AOEU/wCEd/4R3S9L0z+zv7T+1/aPsRJ3+b5Ue3f6bDt9TXzvRWdGhClKM4bxlzLV6O1tE9Nm9Ntb2vqOs/apxqa3XK/TTT8F56W2PtHU/wDgsx4gtP8AgpnrH7Reg+D7HT4/EVlFpOq+F72/N7b31iLaGCWFpxFGfm8lXDeX8rAZDgEN0N1/wWK8B+CPhb8TvBfwv/Zv8OfDbQPit4b1DR9Z+zeJZ767a7uEKQ3AlkgGIIVebFqiqpMuQyYwfg2in7GHIqdtEuX5Pp5rqr7PVamjqzcudvXT8FZP1srX6rc+vf2fv+Cn/h7w9+zFp3wh+NPwZ0X43+DfDVxJc+GzPrk+ialofmNvkjS6hR5DEW52rt9CWUKBxnjn9rj4V+MP2uvCfjq2+AWh6D8P/C8EET+BdO1orFqzQvJIHubt4GaQszqHzESyRhCe9fOtFaf8vPar4t/ntd935vUxt+79l0/S97LsvQ+zPD//AAWW8Vaz+0P8U/E3xC8Ox+PPAnxd059I1jwVJqTWlrbWigizW2m8t/Je2B+V1j5LOxAZtw+OL54ZL2ZraOWK3LsYklkEjomeAzBVDEDGSFGfQdKiorOFKELcq2SXyV7X777vXzNHUk736u/z207bLRaBWh4W8W6p4G1631XRdSvtI1O0bdBd2c7QTQnGMq6kEcE9DWfRWjSas9iU2tUX/FPie/8AGviS+1fVLl7zUtTne5up3A3TSOSzMccZJJNUKKKUYqKUYqyQ5SlJuUnds+1vhB/wUl+AvgDw94Iuda/ZB8Ja/wCOPBFjbW8WvW/i2502DULiBFVbq4so4DFLIzIHbzC2WJORmvI739szR/jF+2xrvxe+M/w9tPiXaeI7ia6vvDlvrNxokDMYxHAFniDyKsQVAAc7gnzHk14LRTavU9q99f8Aybey2V7LbsuxNlycnTT193bXeyu9L21Pv/8Aas/4K8/Bf9qr4I6Z4P1H9lO0sJPCehy6L4Sv0+IN0T4bUxlYmREtY/NVG2N5cjENsANct+zd/wAFQfhb8J/2Hbb4I+M/2eG8eaXLqkmsaxe23j680H+3LnexiadLaDcyxJ5aKjSMmYlbaGxj4porONGEYyglpJ3fre9/v1fd2b2Rp7SXu/3dvut91tLbLW27PcPi3+1F4OtPj/4T8d/Az4aP8EJPCnkXUVonie68QGa9imaQXBluVVlBXYhjxtIQ/wB419CeNf8AgrX8Ffir4oufGvi39j3wLrfxP1C3P2/Wv+EnuotMvboj5rl9M8kxMxbk7mZj3c18F0U5UoyhyPZX6u+u+u+vr0XZB7R8/Ot9FsrO211s/W3Vvqz179in9lWb9rT4022iXOr6d4Y8K6ah1HxL4g1C5S3tdG0+PmWUs5wZCoIRBksx6bQxHcf8FWf2wtG/bH/apk1HwlA9r4B8HaXbeFfCsbxmNn0+1DBZWU4KmR2dgCAQpQEZBr5poqprmce0fz2u/RaJdLvvpMHy8zW70+Wjt82k36Ls7le/f8E+P299T/YM+JOt348OaX428J+MNKk0TxL4a1JzHb6xaP8Aw79rbGBJwSjDDOCpzkeA0VXRrvp9+jIav8rP5rVfifbfxK/4K1eD7z9lH4j/AAa+HPwD0P4ZeDPH8NrIVtfEc+o3dvex3STyXEs00W6dWSNI0i/diMbiCwIUSfDz/grj4P8AEHwf8D+HPjn+z94c+N2r/DaFbLw9rtzr82k3MVon+qt7lY4ZFukTptf5SANylssfiCioVOKvbun53Wzvumk7K3TTY1dSTiodFf8A8mtf1vyq6fVX31PW/wBtv9sjxR+3Z8f9R8feKY7KznnhjsbDTrJNtrpVnFkRW8YPOFyxJPVmY8ZwPJKKKKdOMI8sdiZScndhRRRVkhRRRQAUUUUAFFFFABRRRQAUUUUAFFFFABRRRQAUUUUAFFFFABRRRQAUUUUAFFFFABRRRQAUUUUAFFFFABRRRQAUUUUAFFFFABRRRQAUUUUAFFFFABRRRQAUUUUAdD8Wv+Sq+Jv+wtdf+jnrnq6H4tf8lV8Tf9ha6/8ARz1z1THZDCiiiqEFeg/s1fsteO/2v/iQfCPw60L/AISHxCLSS+Np9tt7T9zGVDtvnkROCy8bs88CvPqKAd+h9a+I/wDghj+1N4S8PX2q6h8Lvs9hptvJd3Mv/CSaQ3lxRqWdsLdEnABOACa+Sq+3fhPH/wAMSf8ABJvxV43kC2/jj9oy7fwroRJHm2+hQHN7MB1AlfMRx6xGviKsYuftZwk01Gy262u1u9k12s7o0910ozXW/wBy0T+bT+Vn1CiiitjMKKKKACiiigAooooAKK6/9n+28K3nxy8IxeOJJIvB0mr2q608ZYFbQyr5pyvzAbc52/NjOOcV93/tr2+qeFfhZ4xuNE/Zy+Auu/Ca+glttA8ceCbSO5utNQ5EdzPcxMZA6jG7eiLvONzd/GzHN1hK1OjyXc+rait0rJveWui8jow9D2ravtbz3v0XRW1+R+cNFfT3jbwDoVp/wSO8FeJItF0mPxFdfES8sp9VSzjF7NbraMywtNjeYw3IUnAPOK9b+Dfwc8I6p8Jv2ILi58K+HLi48WeLtWttcll0yF31mJNTVEjuSVzMqp8oD5AHA4qKudwhFycX/EdP5qEp3/8AJbE0qTqQ51/LKX/gPN+fKfA1Ffp94i8d/Cjwt8IvEfi9PgP8MJNR+HHxPl+H2kW8umBrbUbV9u6e9XpPOI45SrNlUZlIXgg/HP8AwU3+Fei/BX9u74jeHPDthBpejWV/FLa2cAxFbLNbxTlEH8KgyHCjgDAHArDKuIVja6oOk4XTd209uR9PKpF/euh0YjB+yi3zX/4ecb/fBo8Hoor9DNC/Y2+16JZy/wDDGX2vzIEfz/8Ahbnl+dlQd+3zPlz1x2zXbmmb0sAouqvi/vQjt/jnG/yuLB4KeJk4w6eUn/6SmfnnRXpH7Wfgr/hXnx41nSf+EI/4V19mEP8AxIP7Y/tf7FuhRv8Aj5yd+7O/rxux2rzeu/DV416Ma0dpJPdPfzTafybXZmGIoyo1HSluvVfg0n96Civv79grwxoGr/si2p+Gvw++C/xS+M8mrXB17Q/HQinvRZqR5JsIJnjRl2kFmV/vZB3HAXh/gjpFj8Vv+Cufg/SvFPwj8P8AgG3udTjtdT8Gtpv+go62rbibeVdu12AcDbtwVxn7x8ZZ8nXrUuT+GpN3au7f3d7PpLYp0LUPbN/1e2/R9bdj45or7N/4J6/C7wz41/4Kx6l4c1nw7oWreHkv9fRdLvbCKeyVY0uPLAhdSmE2rt44wMdK9Z/ZG0r4c+Ffg1+zra6z8KvAvizUvin4s1rw3qN9qmlxyyw2guwm5Dx++UtFsdtxRFdV27s1jiuJY0nGMabk3GEkrr7SqO2vb2bv6mscG2qjb0hJp/KPM39x+bNFfeX7YvgrwN4y/Yj8Z3/hn4e+FfCFx8IPiWfB1lf6fb7L/VbBIWj33kvLTzNJtcsxGO3Q7vg2vRynNI46lKpGLjZ2s7dlJbeUkRicM6LSbve/4ScX+KYUV6J8Afhx4C+IVzqa+OfiR/wrxLURGzb/AIR+41b7eWLbxiFh5e3C9eu/jpXtv/BSb4F/Cz4f/Fbxdd+HfHFhY+I4JrRU8E2Xhaa0gtVaGEMVuVIg5U+aQF5LEdcmitm1KljIYOUZXkm7qMmtHHqla3vau9o295q6Lp4Gc6Eq6asv7yT2b6vy0W76XPk6iivtT/ghF8H/AAT8b/2wPEmi/EHw9pviTw0PAmr3E9td2yTGEqIv30RYHy5lUtskXDKTkEGvSqTjCEqknZRTb+Sb/Q4vtRj3aX3tL9T4ror9SPgB8VPhR/wUs/Z3/aJ8NT/s8/Cf4cH4feCrrxR4V1fwzpa2+rWv2ZSY47m5+/cMWC7m+UOCwKnOa+c/2u/hr4c8Nf8ABKz9k/xDp2gaJYa/4jk8UDVtTtrGKK81TydRCRefKqh5di/Ku8naOBgUOTUeeStrFf8AgXPZ/JwaaOilQ9p8L25k/WEVJ/epKz8z5Dor9gPhV+zB8M9b+PX7BOnX3w/8HTad41+GGp3viKAaNbAa3OukO4nuPk/ezK3zLI+WVgCDmtr4TfEj4KeN/hR+zb8RX/Zm+DMeq/GPxzJ8Obuw/sVDYWWnC9aMXKxEFWvQph/fOCxxJyAwCxGo5uMYq7k3H5+1nSX3yj8k/LXFq0ebyT/8lU390b/NW6n5bWv7JfiO8/Y6uvjct7og8KWnipfCD2hml/tA3bW32kOE8vy/K2cZ8zdn+HHNeXV+u9t4m8FfsMf8E7/j8L/4f+GPHln4Q/aF1HTPC+g6/E91pKTrbLHC1xFx5yR2/m/IxALBeQcGvJP2p/gv4A/bm/ZE+AHxi8JeAvC3wj8V+OfHifDfXtO8NWi2mkTySFvLuo4BhU27M/3v3hDM+0NTVTnnemvdfs/lzwg/n70tbbXXZm2KhChGKqaStP5uEp7f9ux++L8r/nHRX7xeMf2dPgp+zp8ZLT4aHR/2Arb4a6EsGna1/wAJt4mVPiFMrRoZp2maL9xP8zMqFjn5cPGCNvyT/wAE5v2TfhBrf/BYD4s/DuL/AIRv4i/C2x8Pa0+j3hFvrFusB8hopoJDvRpolkKrKvO5Sc9aw+uQbfLtyykn5R79r3Vvn2I9m1FOW/NGNv8AE7fO3X8L3PzTor6p/aW/4KH+DPi58JNf8AeEv2d/g34E0OV7eLRNcsdHDeJ7OCGVW/f3z5aaSVUAdgFOGbJbOa+uv2LPBHh/Uf2Evh9c/Ab4K/s8fHn4hRrcXPxE0jxrHb3nia2k80hPssM7Jsh2DhlJBwMI7FjXRz+46jVldL71e77JbPs7dzOWlRU+rT9NOifVvp317H5PIhlcKOSxwK+kv2gP+CQv7RH7Lfwcv/H/AI7+Hv8AYXhLTPI+03/9vaZdeX50iRR/u4bh5Dl5EHCnGcnABNea/tT69/wk37Tvii9/4V9B8KTNqID+EoYHhTQ2UKrQ7HVWXkFiCq4LHAAxX1v/AMHKH/KRe1/7E3Sv5S1nWrONHDzitakmn1slDm6b9Vvbr66Kn+8nF/ZTf4pfqfF3wE+EP/C+fixpPhT/AISjwf4M/tUyD+2PFOpf2dpNnsjeT99PtbZu2bV+U5ZlHeua17Sv7B1y9sftNpefY53g+0WsnmQT7WK74243IcZBxyCK+9v+CA3xI8LeLf2otF+DHi/4Q/CXx3pHjW6vb1tZ8Q+HIdQ1bTmh0+SURQyy7lEJNuPk29Xc55r5q/Yz8K6X4o/4KI/DDRNT02w1HRr/AOIGm2V1YXVuk1rcwPqEaNE8bAqyFSVKkYIOMV2U6M54qlQ250rfOXLf5NNfiJR/2apXf2Wl96k/0PE6K/Yv4XfFn4G/ED/gqlq/7Llt+zL8IU8A3uratoD63NpCN4hW7jS4lluI7n/llFvjZY4owpjXbtZQAg8R/ZO+Cvw4/Y+/Zh/aP+N/iHwH4e+K2pfD7xmfAfhfR/FFsLrToW85Va5niI2yErIh6A/uyFK7yR5v1+mlGUtFKPMvP3oxt5NuUd+/kaTw8ozdJ/EpWa7aN3v5csr+ml7nxtb/ALIniS5/Yzn+OQvdD/4RO38Vjwe1oZpf7RN2bYXO8J5fl+VsOM+Zuz/DjmvK6/Uv49/FDw3+1/8A8ESdF1Hwp4F8L/DTUtf+M9npus6V4fgNto41E2DR/aIITnyUeJoCUBIBU8kkk/SPjL9mD4Qfsk/EjRfhnaaX+wP/AMIZoMFtbeI5PiX4iVfHt+ZI0aafe0RFq53FkXLLgqVMYIC9dWTjJpq2qST/AOvcJN37Xlp1s1po7E4w5IOGr5XKX/gycFp/27+DZ+EdFfdPhzUvgR+yr/wVP8ceATpHhP4qfAPxhdLoUV7DHb63NpMF5FG8dzp94od1ltpJjGWifewRgdzqpHSf8FIv2b/Av/BKP9nkfBi30rRfGvxU+Il7JrV/4s1LRElk0TRY5njtLeyklT91NKEzK0RyDvBODGRk6/7uFSz99K3r1i+1o+83tbRa6EKnepKmn8O/p0a9X7qXe3RngX7Of/BI79oX9rP4S23jn4f/AA+/t/wteSTQw339u6ba72icpIPLnuEkGGBHK89s1853Vs9lcyQyDbJExRxnOCDg19if8EBf+Urvwy/65av/AOmm8r5G8Uf8jNqP/X1L/wChmuirFwqRj0lHm9PelH/22/zKhTToSqPdSS8rNN/p3KFFFFBgFFFFABRRRQAUUUUAFFFFABRRRQAUUUUAFFFFABRRRQAUUUUAFFFFABRRRQAUUUUAFFFFABRRRQAUUUUAFFFFABRRRQAUUUUAdD8Wv+Sq+Jv+wtdf+jnrnq6H4tf8lV8Tf9ha6/8ARz1z1THZDCiiiqEFWdIS0k1a1W/kuIrEzILl7eMSSpHkbiisyhmAzgFgCccjrVaimnZ3E1dWPon/AIKPfti6J+1l8TfDdt4J07VdD+Gvw/0C18PeGNM1BI47iCKNB5ssixu6CR36kO2VRMnOa+dqKKzhBRVl3b+bd2/m2W3e3kkvklZfgFFFFWSFFFFABRRRQAUUUUAdN8G9a8MeHvihot5400a88QeFYbkHU9PtLk209xCQQdjgjDDIYcjJXBIBzX1VpH7Xf7PP7NPw3+IkPwc0H4x3XiT4g6FP4ekTxZeWSaZYQTDDSKluxaR1BO3zAT1wy5Ofi+ivNx2V0sW7VZSt1Sk0nrfVf0zehXlRlzw3VmvJrZo+pv2c/wBqz4SXv7I9x8HvjRoHjm40iw18+ItF1TwjJbC9t5nj8uSN1uGCbcZ5w2d54BUNXc+L/wDgo98MLjXP2eIPDPg/xP4e8NfBLxFc3j2Z8m4mubJpYHR1cyjfcOY5HcNsUM+AxHNfEFFc1TIMLOu68ubdytzPl5nHlbtte39asIV5Qh7ONtpLbW0r3X3u/qfTXjL9s7wv4i+CXjfw3DYa+t94k+LR8eWsjwRCKOx2SDy3IlJE/wA4+UAr1+euG/b6/aC0b9qf9rjxh498P22p2ej+IJbZ7eHUY0juUEdrDC29Ud1HzRsRhjwR9K8eorbCZPhsNUVWle6TW/RqCf8A6bj+PcdXEzqK0v696cvznIKKKK9U5wooooA+jPgX4o/ZdPws0OH4j6D8ZbPxrpk0rXd/4Tu7NrXU181niLLcvmMqhVD5YH3M5ya2vi5/wUg/4S//AIKAeFvjHovh+a20zwV9js9O069ujNdXdnbhlPnzHOZpFd8t820kctjJ+WaK8l5PQlXdeo5Sb5tG20ubey6dvJaKxq6rdN07LXS/Wx+g/wALv+CgX7MP7P37TF38T/CHgP4qz674luLltTGqS2TW+ix3Cu0psYkly7vIQv71wFRnwf4T5J8Nf25/CXg7w1+ztZ3OneInl+Efi3Ude1gxW8JW5guLqOZFt8yjc4VCCH2DOME9a+U6K5aPDWDpy5rybslrJvSKkkvRKb/Pc3ljajjKOnvXvpvdOLfrZ/kfTnxA/bQ8L+K/2Xvi34Jt7DX01Xx78R38YafLJBCLeG0Y5CSkSlhL7KrL/tV8x0UV6WBy+jg4yjR2k038oqP5RRjWrzq2c+l/xbl+bYZrQ8UeK9U8b67Pqmtalf6vqd0VM93e3D3E821Qo3O5LHCgAZPQAdqz6K7OVX5upld2sFfSf/BLb9sXwz+xH8ftf8VeK7HXdQ0/VfCWpaDFHpMMUsyz3KoEZhJJGuwbTkhiemAa+bKKitSjVpSoz2knF+jVn+DBO0lJdGn807r8j6a/4J1ftneF/wBkXw18brPxJYa/ey/ErwFe+FtMOmwRSLBdTDCvN5kqbYh3K7m/2TXpPwX/AG2v2dPiP+w34D+EXx/8IfFKe7+FupX11oGqeCprMNdQXcxnlhn+0Ou0M52narHCKVZTmvhyitJ++rPy/wDJXJp+vvP5Ow6cnBWj3b/8Ciov5Wij9MdW/wCCznwn1D9qv9nXxrp3gfxd4b8LfBnw9rPh+40e1it7h44Z7aW2s1t2edfN2oYvMaQoc78BuM+NfCP/AIKI+CvAP7Pf7MfhO80vxRJqPwX+JD+MNbkhtoDDdWjXazBLYmYM0u0EYdUXP8XevjOippxUJRkt4vm+ftHV/wDS5P5aCbvbyVvly8n5H6OWf/BU74C+PPhV8YvAPxD8E/EbWPC3xZ+KWoeMzPphtLW/0azljQ28sRaZkN2ksYDRsDEUdvnb7p8s/bW/4KG+A/EfwP8Ahd8JP2f/AA94r8J+APhlqbeI4tQ8RywtrGo6sSxE7iFnjXZvc5DYJfAVAgB+NqKlUoppx0ty/wDkiUY39El9y7I1q1pVZSlUs783/kzblb1u/vfdn6F/Fj9uD9jz9tbxfYfEf40fDv406R8T57aKPxDD4Mu7A6Lr80UaxLK5nkWZMqi8RhSMYLORuPlf/BOL9uT4efsU/tueMvH1z4f8TQ+CdX0rV9L0fS9OEV5eWEVzKpto5GmljDBI1Cs+8sSM4Oa+SKKToQtKC0TTVulpb2/Tt0M+Z+7fVpp36+7t/XXqFfafwD+L/wCxL4b8L+AtZ8VeEf2iNF+IXheCB9Tbwpqln/Z2r3sWCZ/MmnW4h3MN2ITHszgHgGviyit02mnF2ad00RZPf0Pav28/2sT+2/8AtkeLPiaNJ/sKDxHdw/ZrEyCV4IYYo4I97gDc5WMFj6k44FfdX/Bx5+xV8TdZ+N0/xstvDXmfDHSfDWkafd6z/aNoPKnMhiCeQZfPPzyxjIjI+bOcAkflXRXPOhF0qNKOnspNrre8eW33X17/AI7e2k5ynLXmVvxTX5L5H3N/wSk/a3/Zf/Yf8TeHfiP420n44at8WNDkvFVdHj02XQY45o5YFKJJNFMWMMp3bjgN04rivFfxz/Zv+Fn7afwo+I3we034yQ6B4c8T2uveJrLxQunyTlYLqCYLYiGTBJVZsiaQfMUwQM4+TqK6YTlGvDEJ6w27aO9vv19TO79lKl0lv+P5XaPrj4Jft7eD/ht/wWFm/aCvtN8Sy+DJPFera6LKC3gbU/Iuo7lY18syiLeDMu4ebgYOCeM9V+zV/wAFI/hjpOlfHT4c/F3wn4t8QfB74w+IJvEkB0SSGLWtGu/PMkUiq8gjLFRFn94QDFjDqxFfDtFcawlJKKt8MXFejcX96cYtPpY1qV51Ksqz+Jvm+ev/AMkz7h/ae/4KA/BbV/8Agn/bfAr4OeE/H/hu10DxnbeI9O1XXZbaW71NVtpVluLp4XxHcebIqqkaFAkSncD8o6f4m/t3fsnftx3Og+Nvj54B+Mem/FazsYLLXLnwLcWH9meJDCgRJZhcyK8bFQMiMAgYG9gor896K29mn8Wrvf0dlHTtokmtttNEJ1W1GK0STjp1Tk5a/wDbzvfc+qf2Rv2ovgj+zR+1b4z+KMngfxLfw6K1zd/DLw5J5V1aWN2zP9lk1CaSYPiFdhGxZCWO7gopOp8Vf+CjemfthfsYap4P+NieJNd+KPh7WZtZ8FeLLO3gm2pcyGS6sLzfJGy25Y5Tyw+z5AFCxgN8hUUpUlKKjLokl5Wd7+r6vqtHpoL2jU3UWjbbfzVrenZbJ6rXU/Sb/g34/YO+K+o/tWfDz44w+Fd/wts/7Xgm1v8AtOzGx/sN1bY+zmX7Qf3zKvEeOc9Oa/OjxR/yM2o/9fUv/oZqhRWlRynUjJ7Rjyr73L82/kOFTloypW1bTv6Jrb59wooopmQUUUUAFFFFABRRRQAUUUUAFFFFABRRRQAUUUUAFFFFABRRRQAUUUUAFFFFABRRRQAUUUUAFFFFABRRRQAUUUUAFFFFABRRRQB0Pxa/5Kr4m/7C11/6Oeuerofi1/yVXxN/2Frr/wBHPXPVMdkMKKKKoQVJa2st9cxwwxvNNMwSONFLM7E4AAHJJPao6+iv+CTHjK28A/8ABRX4Vapd+HtT8URQ6uYxYafafarnfJDJGkyR/wAXkswlPoIye1XTjzSUf6/r8O5FWfLByXQ8v+JP7MHxL+DOgQar4w+Hnjnwppdy4jhvNY0G6sbeViMhVeWNVJI5wDXC1+yn7TPh/wCJHwD/AGP/ANqK5+JfxQk+Pmh+J7j+xtJ0zS5X1NfClw0nmJdXoI26d5WY/wByvy7lX1Br8a64cNiHVbv2T+9Xt8u/n3uddakobd2vW3VfirPXQKKKK6znCiiigAooooAKKKKACu78W/s0eNvAvwL8K/ErVdF+y+CvGtzcWmi6j9sgf7bLbuyTL5SuZU2spGXRQccE1zPgfVtN0Hxro99rWk/29o9nfQz3+mfantf7RgWRWkg81MtHvUFd6jK7sjkV9mf8FMfhF8FI/wBjD9n/AOLPwh+Gk3wzHxLm1tNRsJdfvNXb/Q544EG+4kYY3CQgqq5DjPSpq80aaml9pK/a9+mm9nZ9LarY2w9J1ans12k/uTfn2+ffqvh6iv0F/Z/+CX7N/wAJv+CV/hr46fFf4e6z468R3Pi3UPD1vpNjr11pseuP5e+FZ5EciGKJY5W3RJvLMoO4cVk/ty/sbfCn4heCv2aPH3wK0HUfAem/H66uNDfQNR1GbUItNvYbyK1LrNKzSFfMkYHJwQikBckUNtT5LdYxv0vKPMl80YUH7aDnHtN/KDal+TaW7W3Y+Kvhx8PdY+LnxB0Pwr4es/7Q17xJfwaZp1r5qRfaLiaRY403uVRcswGWYAZ5IFSfFH4Z638F/iPrnhLxLZf2b4g8N30unajaedHN9nuImKOm+NmRsMCMqxB7E1+rfg/wF+yH+y//AMFOPAXwHsPht4s/4Tfwlr2kxp8R5fEs5abWkeC4ijewLeQYZHKxsyhSCxCrxvrN+Ev/AATW0n9sv/goT+1r468SeE9b+IelfD/xlewWHg/S9Vi0mXxHfT3UxCPdySRiKKNF3Nh1Y7hgnGxoVaE4RqQ+Fqbv0aXIlbrq5dV1i9tTq9ilTlzP3+aEUrr7Sm3fppy99LSufkxRX6i/8FI/+CUugfDv9gvUvi/afBLV/wBnXxP4O1a2tL/w5N41j8V2OtWdxKkKzx3Ald0kWSRMg7Bjd8rcMML4Lf8ABOT4Nft4fD34d/F3wbLp3w08B+Eo5Lf406RNq1xMdGa1jM5u7ZriSSXy7pFKr852FlwCVelCtBxlNuyi7SfRaXu2r6apaX1drGEotNJauSbS6tp2sr210bXRpaPY/Neiu9/ac8WeCPG3x18R6h8N/Co8G+Bnu2TRtLN5cXckduvyq8kk8kjmR8b2G7CliBwK4Krpz5oqVrX6Pcc48snG97dgor6r+DX7MXw18XfC7RNS1b4eftVanqN5bLJcXfh3QbWbS52Ofmt3ZCzJ6EmvKP2sfhl4b+FvjbT7Pwz4f+Kfh2znshNLB47sIrS9kk3uN8SxqAYsADJ53Bq8yhnFGriPq0U+bXtbT5nW8BUVH291ayf32/zPK63Phr8OdZ+L/wAQtE8K+HbP+0Ne8RXsWnada+akX2ieVwkab5GVFyxAyzADuRWHX1d/wSK0z4OfEX9prS/h78W/hXL8Qx4/1Gz0zSb5PEd5pX9guWcSOY7dl88PuT7zDb5fH3jj2qUOaVt/Lq9dl0v66Hm1aihBzeiXXt5nzd8TvhrrXwb+Iut+E/Ell/Z2v+HL2XTtRtfOjm+zzxMUdN8bMjYYEZViD2JrCr6H+KPwM8LeHP8Agqhqnw3s9L8nwXb/ABM/4R+PTvtMzbbH+0hD5PmlzL/q/l3b93fOea+6db/Z+/Yp8A/8FIm/Zml+DPivXr/V9YbT38VN4uvYBodzcqJYLWC2WTEsUSyIhklYvuU5D9a46NbnhTa1lNXSW7ta/XT4l18r7X68XTjRq1oydlTet3eyvJb2V7cuuifW1r2/I+u88Kfsz+N/G/wG8VfE7TNE+0+B/BV1bWWtal9sgT7FNcOqQr5TOJX3MyjKIwGeSK+wP2V/+Cffwr8D/GP9p7xD8XP7W8VfDb9mieWzOk2ly1nc+IriS6nt7VXljKsgPknOwr87rztBDer6v41+DnxK/wCCFn7Q+u/CDwNqvwzguNf0C31nw3d61LrEVtcR31sUmguZf3jJIjgEOBho2wMcmpVkqfNHV2g/RTkkr+sXdWvurmdWjVhVVOWi5pRd+rjFtqPmna/lfqflZRX7S+Bf+CJfhv4J/DLwHYXn7LfiX9oPWtb0y31HxL4lT4kQeG4dIlmGWtrS1NzE0xiGP9Yqhsj5+Sq/I37Rf7J/wf8A+CcP/BV3/hBfiToN54x+DmqQQXHl3GoXEGoaNa3a/LN5ltJHvkt5FYYO5XRT8pYghutFVlQ6ttLbVrp316N2i+9iYpype2W1k/k+v+a+LyPhOiv0N/aY/wCCdXwy/wCCafwE8e698RX0z4j+IvHN62n/AAjtbfVZoozp21ZDrU/2eSMttSVFCNlPMXoyuCPzyop1YzbUelvvavb1XXs9N00rlBxV35/NLr6Pp3WuzTZRWv4C8J/8J34z0zRv7T0nRv7SuEt/t2qXH2eytNxxvlkwdiDucHFfXHin/gm1oEH7NPha7tviP8F7PxFNql2l74gm8XSDTdShAHlwQuUKGSPncFRSMjJNcGYZvhsFKEa7+J22/H8PXyOjCYKriXJU+iufGFFSXUH2W5kj3pJ5bFd6HKtg4yD3FR16e+pyyi4txe6L9j4V1TU9Eu9SttNv7jTrAqLq6it3eC2LcLvcDaue2TzVCvozwN8Vr/x9+yP8SdMkttO0/TPD9jpcNpa2UHlR7mmfzJm5JaRyqlmJ7dq+c64MFi6ladWFWPK4StvfRxjL79T2M1y6hhqOHq0JuSqRbd1bVScWl5abvfstgooor0DxQooooAKKKKACiiigAooooAKKKKACiiigAooooAKKKKACiiigAooooAKKKKACiiigAooooAKKKKACiiigAooooAKKKKACiiigAooooAKKKKACiiigAooooAKKKKACiiigAooooA6H4tf8lV8Tf9ha6/8ARz1z1dD8Wv8Akqvib/sLXX/o5656pjshhRRRVCCvof8A4Jb/ALV2gfsZ/tj6D4z8U2t7ceH/ALNdaZfSWShrmyjuImj8+MHqyEg4HON2MnAPzxRT7p7NNP0as/wInBSVn3T+ad1+KP0M8IfFD9mj9hD4VfGO/wDh/wDGXxT8Y/E3xN8N3fhex0Sbw3d6TbWcdyMGe7knUJPJHyQy4PLAJ824fnnRRWMKfK7t30S9Er6fi99TolVco8nS7fzdk3+CCiiitTIKKKKACiiigAooooA6v4H+EfDHjv4raNpHjPxd/wAIF4YvZmTUNf8A7Kl1T+zUCMQ/2aIiSXLBVwp/iz2r9G/2hR+xp8W/2IfhZ8JrH9qm/s7j4R/2rNZai/w61eb+1XvbgTsrxeWgjwRtBDnqCemD+XNFTVTnT9leyunp3V7PW+139+tzSjUdOftI72a+TTT+9O35WPqz4gftJeC9b/4I6+AfhXa6z5vj3RfiJea7e6X9knHk2UltKiS+cU8k5ZlG1XLc8itz4j/to+FdI/Yf/ZD0nw1qial47+DGu6xrOsaY9pPGtoz6ml1agysgjkDqmf3bNjocHivjeitOZ2a7yjL5wjyr5W38zPDpUY8sdVaa/wDBnNfa38zt8tz9WPFv7Q37F/jz9unw/wDtS3XxO8Ywa7NqGn6zf/D1vC1y0lrqMflRiZr0L5PkwlBK6IZGbYdhJISvPPAf/BQL4O+KP2jf2pvAfxC1HWX+CH7QWvz6jZ+I9LtJPtGkTxXck1reeQyCUowKkqULAooKEFsfnVRXPGhCMPZL4EmlHok+V6ddHFWd7qy7I3+sTt/evGXN1vFSSfbXmd9Nb+t/pT9qf4Efs2fCn4TwSfDH47a58WPGl1qsaGI+EbrQrCxsdshdpPtCl3k3eWBsboW+XpX0r8Nv+Cm/wp/YG8NfDf4SfDSGx+I/wz1OJ7n4v6tcaVNA/iya7jME1vDHcRpIsVtGcoCo3lUGfvs35rUVah7vJPVX1T6q1uV+XXvfW5lJ3alFWaWjW6d78y8+i6W6Hov7V/hPwB4L+P3iOz+Fvir/AITHwCbkzaLqDWdzaSrA/wAwhlS4jR/MjzsLYw23cOuB51RRRThyRUbt26vcc5c0nK1r9jufDv7T3xK8I6JbabpPxC8c6Zp1mgjt7S0166hggUfwoiuFUewFYXjv4m+JPilqUV54m8Qa54ivII/Jin1S+lu5I48k7FaRiQuSTgcZJrDorOOFoxn7SMEpd7K5Xtqjjyczt2uFfYn/AASRj+A/w1+MHh/4pfFf41y+AdZ8D+II7yw8OJ4Sv9T/ALVijVHErXVurrGCxdNhQt8obODivjuiuiMpRfNHRnPUpxnFwns9/M+6f2xNX/Z50/8Abk8P/GT4d/HGfxwviD4iQ+Ide0mXwhqGn/2FbG8FzJMs0qDzlX7oRY9/fnpUHjb9sH4dav8A8F3o/jNb+IvM+Gy+NLTVjrH2C6H+ipFEryeQY/P4Kn5fL3cdK+HaK5sNh1Rq06sW37O6inayT5NNr/YXXq/K2mLbxEaiqf8ALzd/+Ba/+TP8Pn+ivwT/AG6/grq/7Sn7Wfg/4havqdr8I/2i9SnmtPFFhp80sumvDd3E9pcG3KedtPnbseWWDKoK4JKwePfjd+zX8AP+CXvxj+B3w2+JWtfEDxT4r1HRtYj1q78N3WlW2svHexNJbwROpMQghg3sZmXeZsIWxgfnjRVewXKo36Rj6qDTjf0slpbRG1avKrUlUnu5Sl5JyVnb1Wmtz9GPi98Yv2Zf+CoPgvwD4t+Kvxd174JfFXwtodr4c15P+EUutdsdfht9224g+zj907b2yXbjONjBQx8D+EngL9miw/b2ni134ga3N8BfDbJfQ3t/pNydR8UmKKNjaCKGEmISz7xlwmIhywYg18x0Vok41HUg7Xu/JN63V+z1S+Hytoc9k6apvpZedlpb7tG9/O5+hnx1/wCCk/gP/gpn8CPiJ4a+L7aZ8Ptf8MXj618JtQttMmnhsoAqxnRJvs8bsEeONCJCNm8ljtCKp/POiiop0owd4+X4K1/V6X72vu23rKbkrPzt5X1t6Lp2vbayRXRap8WNf1r4aaX4Pub/AMzw7ot1Ne2Vp5EY8maXHmNvC7znA4ZiB2ArnaKqdOE7cyvbVeT7kxnKPwuwUUUVZJ6Z8JviBpHhn4E/EvRr278nUvEEWnrp8PlO32gxTOz/ADAFVwCPvEZzxmvM6KK56WHjTqVKkd5tN/KKjp8kjtxGOqVqNKhJK1NNL5yctfm/LQKKKK6DiCiiigAooooAKKKKACiiigAooooAKKKKACiiigAooooAKKKKACiiigAooooAKKKKACiiigAooooAKKKKACiiigAooooAKKKKACiiigAooooAKKKKACiiigAooooAKKKKACiiigDofi1/yVXxN/2Frr/0c9c9XQ/Fr/kqvib/ALC11/6OeueqY7IYUUUVQgoor65/4Ih/Cnw58W/2/tCtfEmmWWuxaRpd/q9hpN2geHU7yCAtDEysCGwcuAeMxijRJyeyTb66JXenyInLlS82l827L8WfI1Ffqn8Lfj/8Vf8AgqR8Av2jfDHxv8I2txpvgXw5feIND1b+wVsH8H6raLvSwRgob5lDZViZNqsGYhhj8rKyhOTlyyXRPe+jv+Oj/BptM6Z0uWHOtruPzVm/wku3oFFFFamIUV9B/wDBPT4DfDP4/fEDXNP+Iq/GHUjZWIudM0T4caAuqatqz7sOAWV1jCAryyYO77y4w3tH/BQf/gmn8Pv2ZPgZ8O/iz4Wg+NejeEPEXiD+wdb8N/EHSY9K8R2ThGmLx4hWPDRxyBW2Ou7By3zATKSjKKfW3pq7K/z+7qC1vbpf52V9PkfClFfWv7YH/BNqD4V/8FAfCHwq+Huoanrfhb4nR6Re+EtTvis89xZ3+1fNkaNERtjiUkqo+VQTXb+Ef+CZXwz+L3/BVPxz8HPDPi/xJafDL4a2N3f63rV28N3qUyWMcYvFh8uFI93nuUXKHAQn5+AY9tBQU5aL3r30tyW5r+lyuV68uvw7def4bev/AA9j4Tor9Gda/Yo/Yy8YfsGfEj4zeBNf/aLuf+EIuP7IW11WTSU238w22ckqLbjdbPI0e7ZJ5gVjlVPT85qcailJws7q34q6/Cz+aHy+4pppp3/B2f43XyYUV0Xwo8N6B4u8f2Gn+KPEn/CIaFcF/tWr/wBnyah9kxGzL+5jId9zhV4PG7PQV7Le/s4fAOCzleH9pLz5UQskX/CvtRXzGA4XJfAyeM1y4rMKWHly1FJ9fdhOX4xi18tzahhZ1VeLXzlGP5tHzxRRSjk13HMJRX3T8Xv2K/2av2U9Y0nwj8TfEnxvh8UX2mRXj69pemWg8OyPJGr/ALkOhmlRdwBKFueCQcgeB/BD9nDQPid+yn8bvHd1eawmp/DcaO2lRRPGkFwLy6khk89SjMcKgK7HXBJzuFeLQz3D1qTrwUuROKTcWk+aSgrd9Wr9lqdawdRuMdLy6ddVf8jxKivon4P/ALI/hv4gfsIeKPiheXutx6/ovjGx8PQW8M0Qs3t5/J3symMuZB5jYIcDgZBr6L+IP/BMX9nvwXqPxOs28efEqK5+DE9tqHigNBaSrcadcK7xW9odibrr/VqXfEYZsbCORlieJMHQqOnPmum07Rb1XJ26fvIr1ZNLCzqfD1X5uSS9W4s/Ouivcf8AgoB+zP4e/Ze+NWm6Z4R1PVtV8K+JPD9j4j0mbVFQXiwXKsQspRVUsCjchR1A6ivDq9bB4uniaMa9LZ99H8/RmM4OLs/L8VdBRXpv7IHwQX9oL9oDQvD903laOsjX+sTnIW3sYB5kzE/w5VdoP951qv8AtXfG9/2h/j54h8UBTFY3U/kadB0FtZxDy4UA7fIoJA7k1n9bvi/qsVe0eZvtd2iv+3rS9OXzNo0P3DrydtbLze7+7S/qjzqiivsH/gnN+wX4A/aC+BHxQ+KvxO1D4iy+E/hu1rbvo3gOxiutbvJJ9x8396rRpEgXksAPvEsoXntdlBzlst/vS/NpHLze9GHWTsvuv+SbPj6t3S/hf4m1zwHqnimy8O67eeGNEljg1HV4LCWSw0+SQgRpNOFMcbOSAoYgkkYr1D9tDw18AdD1Lw3P8BPEfxD1rTr+0kk1e18X2sEd3pkwZQiB4USN9w3E7cgYHzHPH0trX7Ovwh1r/gjh48+JPwo8cfHu0m0fU9I0/wATeGtc1W1h0G/1F5bcO5tbeP8AfInmbomd9y/LnkEVk6qVJ1H3S++XL93n5roVb94oLqm/uV7ev+TPz8or1n9k3/hRn/CS6r/wvT/hbH9j/Zl/sz/hBP7P+0+fu+bzvtny7NvTbzn2r6M/4KHfsUfs+/s9/sfeAfHXgG/+Mmk+MviFdi503w547n037U+kBJN160NpFmNXfyvLLyAsGb5eMiqk1BJvq0vm+n4N+ib6Dor2knBaNXevZK7/AMvXQ+GqK/UHwZ/wRT+HHwp+HPgdfivon7U3ivxj4y06DVbt/hj4QGoaL4ainGUiuZmt5TJIo5cREsP7mCpb4w/4KLfsV3v7Af7Veu/Du51BtYs7WOG+0zUHh8h7yzmXfGzx5Oxx8yMP7yHtiplWhGp7J73a+a3X9b2dr2CnFzp+0jtZP5PZ/wBbXVzw2iiitSQooooAKKKKACiiigAooooAKKKKACiiigAooooAKKKKACiiigAooooAKKKKACiiigAooooAKKKKACiiigAooooAKKKKACiiigAooooAKKKKACiiigAooooAKKKKACiiigAooooAKKKKACiiigAooooAKKKKAOh+LX/JVfE3/YWuv/Rz1z1dD8Wv+Sq+Jv8AsLXX/o5656pjshhRRRVCCvQf2VJNbi/aJ8It4b8a6Z8OtcF+v2LxJqV/9hs9JkwcSTTYISP+FsgghiCCCRXn1FVGXK0yZx5ouK6n62/tH/t4ax8Cv2PvHenfEb9o/wAG/Hv4o+PtFm8NaLpngv7LLpHh61nwt1cyz20USvIU27fMQOCAFBVnI/JKiiuenRUZOfV/LRf8O33bZvKo3BQ6K7+bt/kl8gooorYyP0l/4I6/GvRfD37Evxr8DeGfi34I+Bnxr8RahZ3el+JvE17Hp1vc2EYUNbJdOp2MD533QXHnBlBwSt3/AIKa/Fzw5cf8ErPB3w7k+P8AY/Hf4ieGPiR9o1vUjrbahK4fT7ls2zSu0s1nH5scYmHyGTeBg/KPzNorKpTU5OXfl/8AJbW32Wmq7690yHupLs21/wBvXv676eWnRNfrb+wx+2H8LJv2MPh/8WPHHirw5bfFn9lzRvEGh+HtDvtSggv/ABEJ7dBp3lQlvMlSMSNECFO0q5PTNfOH/BCZPFnij/gpXpXjAapq1no+kwahqfjPXC8YtYrWSCVm+2yygxiGWfYGLfNyWUgruX4hr6F/YB/b0/4Yo1XxlY6t4J0n4jeBviHpQ0nxF4dv7lrQXsaMWjZJ1VjGylm52n7x6EAiuW1WdeNruLST2u1Jvv8AFJ3elm99Ab/cxova6u+trq3b4Ffl7H27/wAFB/BPxj/aG/ZF8YWfg3xb+x3e/DPwPcP4r1/w18FdUIu541Zj9svIyCrbBl2w67ipOHZVx+TtfaPjf/gqX8PvCf7P3jLwL8Dv2dfD3wfm+IFg+j65rk3iW58RahNYSY823jkuI1aNXAwfmI7hdwDD4urDD03BtJaab2u3az2b0sla+vysb1anOk3vrtfbft3b2/M6L4UfFfX/AIIeP7DxR4Xv/wCzNd0subW58iObyt8bRt8kishyjsOQevrXst7/AMFWPj5qNnLbzePN8U6GN1/sTThuUjBGRb56V88UVnissweJlz4mlGbWl5RT07aoqhjMRRVqM3H0bX5BUtjDHcX0KTS/Z4XdVkl2lvLUnlsDk4HOKiqWysptSukgt4ZZ5pDhI40LMx9gOTXccr1Vkfp7+zdax/s+Imm+Nv2pfgn8SPgBDZubzwzqGoLqmoXMAiIjigsZFeSBgdpCRyfKR9wmvAf2Gte+H3xC+HP7RHwuu/FujfDiL4kx2Nx4ZvfEFz5NjCtndzTJBNMxwpKvGuSSeGI3EYPyufhn4kUZPh/W/wDwAl/+JrFliaCVkdWR0JVlYYKkdQRXzMeHFarzVXzT5dVGMdYS5lJpKzldK7fRWO+OMcOXkXwu/V/JX2T6/wDAP0C1DTfh5+zV/wAE6PFPw2tvit4G8Z+MpvGWka3fjRdRSSyCtLGuy2kba1wI0h3yOq4XzADjFWf2m/jX4N1/xZ+21JY+LfDN7H4rtfDq6I0GqQSDWDFLAZRbEMfO2AHdsztwc4r88qKiHDEfautUquUm3J6Ldui+nT9yrerCljfZyjKMfh5f/JZTl+PO/uPpv/gqF490P4gePPhVNoOtaTrcWnfDHRLC7ewvI7lbW5jE3mQuUJCyLkbkOCMjIr5koor3cDhFhaKoxd0r/i2/1ONu6S7JL7kl+h798KfGGkfAv9jHxjq1pqumy+OviNcjw3BaQ3Mb3em6Uo33MroDvjEzARjcBkKCK8BrXsfAOu6papPbaLq1xBIMpJFZyOrD2IGDVHVNIu9EujBe2txaTgZMc8ZjYD6EZow2FjSqVKl7ym7v5JJL0SX3tvqbVa7nThTtZRv823dv8l6JFavsX/gmJ8Nddl0DWfGfgH9qXwD8BfHul6glqNJ8Ua0dHttXtdissrStvjmUMzr5TQuAUycZFfHVFdmttNGc1rvXY+7v+C1vxA8BePL74VwWHir4dfED4v2umXA+IPi7wXapBpWsTM8YtSXj/dyyqiuGkXHb5UBVF+h/gz+x34G8E/8ABLH4mfBDUf2pP2X/APhKfHniGy1y3u7fx3byWFqsDQExuzbZMsIeoj43d8c/kVRWDop0nSWl3fTT7SkklskmvuNpVG5xm/sq34Navq7Nn29/wS//AGRvhZd/tg+Mh8WPiV8H30j4UMz6ZDqXiuGy0LxtqCyOsHl3Ui5lsg0e92VGJVowUIYis3/gpt8A/FnibXNf+MnjP9oP9nP4ma1ql7FB/Y3gnxmdTvLSFiVjit7byV228KgD73A5OSST8Z0U505S5Xzax/z1fq1p6JApxTnZaSf3dlfst/N7n6+fFf4/an/wUZ8CfD7x18M/2ydI+AWt2OhWmieLfB3iHx7d+GLeC7hDeZd2qxuFm37h0XBCrlw2VH5u/twXGpL+0nrthqXxauvje+kLBZxeL5b+a+TUVESOyxSTSSMY45HkQHdg7SRjOK8lop+yXtHNbXbt2b10f3/J2Ii7U1DskvktNfPbXyuFFFFakhRRRQAUUUUAFFFFABRRRQAUUUUAFFFFABRRRQAUUUUAFFFFABRRRQAUUUUAFFFFABRRRQAUUUUAFFFFABRRRQAUUUUAFFFFABRRRQAUUUUAFFFFABRRRQAUUUUAFFFFABRRRQAUUUUAFFFFABRRRQAUUUUAdD8Wv+Sq+Jv+wtdf+jnrnq6H4tf8lV8Tf9ha6/8ARz1z1THZDCiiiqEFFfo7/wAEhNB+APxA8E+KPCtx8P5PGHxJl8Ea1rmsat4mtLe5sNG+z7VgisITu+c+YrtMwDqVwDg4X55/4JIfstaJ+1z+2/4c8OeKYjceFNMt7nXNZgDlftFvbRlvLJHO1pDGrcj5S2CDWSqx9vOi9FGKk30t71/u5X69Ad1RVXu+VLrf3bffzL9T5oor9Mvhb49+FP8AwVd8O/GX4eab8Dfhz8MtZ8NeHbzxT4G1nwxpkdjfFbQoBb3jKP3xk3rnAAwW+XcFevzNpQq80uRqzspfJ3Xy1TVvI1nT5Y8yd9WvmrP5qzVmFXtG/wCWn4f1qjV7Rv8Alp+H9a2Mi9RXs37On7JUHx2+GXibxXfeL9P8J6V4TvLaLUJr21aWOOCUOWlBVtzOCqqsYUl2cDK9ad+0D+yZY/DD4X6P468IeNLLx/4M1W7bTm1CGwksJbO6UFvKkhdmZcqCQSQfYAqT5jzjCLEfVXL37pbStdq6XNblu09FfU7IYGvOj7eK93V7r7Lael76Na6eex4vRX0i/wCwh4f8I+C/Cfifxr8UtN8I+HfFuiW2pWs0mjy3l09xKNz26W8TlnSNdpaYlRmRRt548qi+Hfg5fjw/hy48eJD4PS5eH/hKF0iWVSgQlZBbKxchnAXG7jOTRQzbDV3JUm3y3vaMraaNJ2s2n0V35BVwFanFSmkr2tququna97eexwdFe9/t7/D/AFP4a+JfAumXnjYeOtMXwpaPot6NITTRBYlpBDFsVmLcDO5zuO7npWppX7C/hvSPhj4R8YeNPitpng7Q/F+nLc2vmaPLeXRuC7BoVhjfcyIoQtKdoBkA296yjneG+rwxFR6TbSspNtq+luVSvZPS33mk8tre2lRgtYpSd3FaNLW92rarW+2rtrb5wor1n4//ALK7/AD4zWfhjUPFOiNpGq2Uepaf4geKf7HPbSKxSRkhSWQZKlcKr9Qc4Oa9T/aK/ZD+Enwp8LeHvtHxRi0LxJL4RttTOmxeH76+j1y4dZGEyTkqIVlYBArIu0ICygk0Sz3CJUpR5pKptyxk/vSV156XXWwo5bWc5U3ZOPeUV26t2673t5nynW9oszWHgXWLiFjHO91a2pdThvLdZ3Zc+hMaZ+lYNbdh/wAk41X/ALCVl/6Ku69c4DFVipyOCOQR2rc8aSteWehXch33F3p+6aQ/ekKzzRAk9zsjUZ9q+vvFXw08K/sCf8E5fCmt6t4X8PeKPjB+0FayXunT6zp8V/D4S0Ndu2WGKVWQXU25SsmMqHOMFPm8X/Zw+A3gv496xpln47+K+g/CXQ9L8PyXj6jqGnz38t0RfTr5UEEe3zH+bJXeDgEgNg4nmvOUVtHd+a+JfLZ+aaW2rXwKf82y8uj+e68rPqeGUV9TftWf8E8vC3wa/Z/8P/Fj4dfGHS/i38OtU1v/AIR6+v7bQptJvNKu/LMoRrWaRmOY1J+ZkPK8YbdXK/tofsH6l+yr+0doPgPRtaHju28Y6dp2qeGtUt7P7INYivQFi2x+ZIFPmbk++2cA8ZwHGXM1Fbt2+dr28rrVX3Ww5RcVzPa3N8r2v8no+3U8DrW8B2MWp+ONGtp0EkNxfQRSIejK0igj8jX1dqn/AASQvL3/AIKMyfs9+HPHun6vcaNp66h4j8Q3OnfY7XRFWAT3A8sTOZPLV41B3Lud8EIAWHpnhj/gkv8ABf8A4VDrvxU8LftV2HizSPAeoxW9zHB4CuYPMvi4+z2xZrosizyBY0m2GMlgQTWTxFPk9pfS1/leyfo3on16XKjTk5+z67dtbXtr1tq10W9j4b+Mmozar4tWeeRpJZIAWYn/AGn/AEqjHM198N7rzWMn2HULdINxz5SyRzlwPYmJDj2r6q/YT8S+APG/x4i+DvxQ8M6FqPhX4rRx6Tba79giXWvDOou7La3Ftd7fNVDLsV4i3lndkjG4N4P8f/gZq37M/jH4g+Adc2tqfhPxLBp00ijCzhEu9kqjnCum1x7MKuUlGag+quvlZP7rr5Nedla8XJdHZ/Pb77P7n5X8vooorQgKKKKACiiigAooooAKKKKACiiigAooooAKKKKACiiigAooooAKKKKACiiigAooooAKKKKACiiigAooooAKKKKACiiigAooooAKKKKACiiigAooooAKKKKACiiigAooooAKKKKACiiigAooooAKKKKACiiigAooooAKKKKACiiigAooooAl+LX/ACVXxN/2Frr/ANHPXPV0Pxa/5Kr4m/7C11/6OeueqY7IYUUUVQj7c/4IRf8AJyXxM/7JZr3/ALb1yv8AwRS+PehfAH9vnw/ceJ7+30rQPE9heeHby+uHCRWn2mPEbOx4VfNWMFiQAGySADXybRWKox9tKpPVSioteXv3181P5WuErulyR0alzJ+fu2+5xv57H6p/sy/sN+J/+CQFp8b/AIsfE/UfDtlpEPhLUPDPg4w6lFNL4ouboxmF4UUllBEYBV1DDcxxtUsfysoopQpNT9pJ3dlHa2ibevd3k9flbQ1nUTjypW1b++y08kku/qFXtG/5afh/WqNXtG/5afh/WtzI+vP2OvhfdfGX9iT4veHNPu7G01PUdW0gWQvJxBFczK7usO9vlVn27VyQCxUZ5qX40fD2+/ZM/YCHgDxe9lbeNPFvildZXSYbqOeWxtY4VTfIULLyyDGCR83XIYDyDwB8cNJ8K/spfEDwLcW+ovq3ivUNOu7SaONDbRrbuWcSMWDAkHjCn3xXldfLxyrEVcZVnOVqftYztbWXLCFmpX0XMtVZ7bo9ejjadHDU4qN58tSN77c06m6tr7rutVvrc+l/2+pGPwn/AGflydo8B2xAzwCQuf5D8q8W+C3wM8UftDeM/wDhH/COmDVdV8hrkwm5igxGpUM26RlXjcOM556VyNFetg8DPC4X2FOS5ryabWnvSctrq9r91fyOTFYmNesqklpaKtf+WKjvbrbtp5n29/wUX/ZA+IFz4R8FeI4tEjl0jwT4HsdP1mcX0ANpLCG8wbS4ZwMjlAc54ry79tByf2dv2e1ycDwtMQOwPnD/AAFfOVFcGByWtRVGNWqpeylKStG1+ZSVvifWV7+VvM6sRmNObm4Qa5oKG9/hcLPZdIWfrfyPpL/go5/x9fB//snOlfyeu5/bB/Zr8V/tD+DPAvxH8G29hrfhLS/ANlb395HqMEZspLVJGmV0dwxYZxtUE5BBANfGlFOOS1acKKo1EpU3J3cbpqV7q3Mu+jv8iPr1OdRyqwbTjGNk7P3VHW9nvy9uoVt2H/JONV/7CVl/6Ku6xK3NNHmfDvVwOSt/ZyMB2UJcqT9Mso/EV755h9n/APBXXTz8Sv2c/wBlX4o6T5U3hzUfhza+F5Dap/o9hf2BImgzk7TudwFPP7puuK9W/wCCJmjXL/AX4l6p8MdN8H61+0bp2h2p8I2mv+VlLQ392Ll7fzGVd/YncFDCIMQrc/F/wQ/bb1D4b/s8+LPhL4l0Gz8cfDzxM32y3067uHgn0DUVGEvrOYBvKfsylSrjgjBbd5V4tHl6P4cQ8OmmksD1G66uGH5qwP0IqXdyqxe022n1XM+Zr5O684vu3a2+ZUpy3hypro1BKK+TVvSS6q1/1V/4Kka78W7/AP4JC/Yfjn4y0DxT8TLD4mWbajZ6WtoP+Echk0+dobKY2qLEZQN0h+8cTL8xGDV7/gnmvhX9qj9lL4NfF7xjcWpn/Y7udVi1xJsFrrTorRrrTmx1JjlSEL6mN+5r8gKKz9lJRnytKTacWlblkoqKa87X33vrc0q1VU9kpaqKcXf7UXKUmttN100smrdPuH/gkX8YfGXxl/4LCaT4jW5gF/8AEC/1SXxGJrNru3ntLiOWWeFlDAqrEIiMWARvLJ3AFT9M/tk/BL4ufCX9nXW/CXgX9kuy+DXwtvfFFprXinVbPxhbeI7rUYre6V4ZPLWQywQqwVyoDLGoP3F3Z+IP+CZv7bPhb9kHxX460/x1oevav4M+JPh6Tw/qsugXC2+sWCFtwkt3ZkHPIZd6g5Bydu0+1fC39t79mX9kzwT4p0n4EeF/jPfeLfiNZ/8ACN3uq+O76yjtdPsZ3USssVm5SRwPul0yCT8+Mq2OJpcsIxprSMUlbq1JtReqdk0nq2tW7XWph6nPWlOr9qWr8mtZLpd3a0V9Er2Z88/sxfDPVfjB+3j8KPD2ix3El/fa9p7BoPvwRx3Pmyy57CONHcnsENdl/wAFeviPpfxW/br+OesaPNHcWB8V2Fissf3Xe2spbaQj1/eQvz361kfC/wDbY1L9jLSvFUPhDw5p9r8QvEth/Zkfi64laS70KzYsJYrWLG2OVyDmUkkDAAGM14FbMx+HWpu5OZ9TtSrN/GViud35b1z/ALwromnKpFraKfzcuX8uVerb6JN5RSSlJ7ya+6PN+fN9y87LCooorUkKKKKACiiigAooooAKKKKACiiigAooooAKKKKACiiigAooooAKKKKACiiigAooooAKKKKACiiigAooooAKKKKACiiigAooooAKKKKACiiigAooooAKKKKACiiigAooooAKKKKACiiigAooooAKKKKACiiigAooooAKKKKACiiigAooooAl+LX/ACVXxN/2Frr/ANHPXPV0Pxa/5Kr4m/7C11/6OeueqY7IYUUUVQgooooAKKKKACnJK0f3WZc+hptFAEn2qT/no/8A30aPtUn/AD0f/vo1HRQBJ9qk/wCej/8AfRo+1Sf89H/76NR0UASfapP+ej/99Gj7VJ/z0f8A76NR0UASfapP+ej/APfRo+1Sf89H/wC+jUdFAEn2qT/no/8A30altdYu7Ev5F1cQ+ahjfZIV3qeqnB5HA49qrUUASLdyqciSQEcghjxUl5q91qFwZZ7m4nlbGXkkLMcDA5PsBVeigCT7VJ/z0f8A76NH2qT/AJ6P/wB9Go6KAJPtUn/PR/8Avo0fapP+ej/99Go6KALuq+I9Q1278+9vry8nxt8yeZpHx6ZJJqObWLu4t4oZLq4eKDPlo0hKx564GcDOB+VVqKAJPtUn/PR/++jR9qk/56P/AN9Go6KAJPtUn/PR/wDvo0fapP8Ano//AH0ajooAk+1Sf89H/wC+jR9qk/56P/30ajooAk+1Sf8APR/++jR9qk/56P8A99Go6KAJPtUn/PR/++jR9qk/56P/AN9Go6KAJPtUn/PR/wDvo0fapP8Ano//AH0ajooAk+1Sf89H/wC+jR9qk/56P/30ajooAk+1Sf8APR/++jR9qk/56P8A99Go6KAJPtUn/PR/++jR9qk/56P/AN9Go6KAJPtUn/PR/wDvo0fapP8Ano//AH0ajooAk+1Sf89H/wC+jR9qk/56P/30ajooAk+1Sf8APR/++jR9qk/56P8A99Go6KAJPtUn/PR/++jR9qk/56P/AN9Go6KAJPtUn/PR/wDvo0fapP8Ano//AH0ajooAk+1Sf89H/wC+jR9qk/56P/30ajooAk+1Sf8APR/++jR9qk/56P8A99Go6KAJPtUn/PR/++jR9qk/56P/AN9Go6KAJPtUn/PR/wDvo0fapP8Ano//AH0ajooAk+1Sf89H/wC+jR9qk/56P/30ajooAk+1Sf8APR/++jR9qk/56P8A99Go6KAJPtUn/PR/++jR9qk/56P/AN9Go6KAJPtUn/PR/wDvo0fapP8Ano//AH0ajooAk+1Sf89H/wC+jR9qk/56P/30ajooAk+1Sf8APR/++jR9qk/56P8A99Go6KAJPtUn/PR/++jR9qk/56P/AN9Go6KAJPtUn/PR/wDvo0fapP8Ano//AH0ajooAk+1Sf89H/wC+jR9qk/56P/30ajooAk+1Sf8APR/++jR9qk/56P8A99Go6KAJPtUn/PR/++jR9qk/56P/AN9Go6KAJPtUn/PR/wDvo0fapP8Ano//AH0ajooAk+1Sf89H/wC+jR9qk/56P/30ajooAk+1Sf8APR/++jR9qk/56P8A99Go6KAJPtUn/PR/++jR9qk/56P/AN9Go6KAJPtUn/PR/wDvo0VHRQB0Pxa/5Kr4m/7C11/6Oeuerofi1/yVXxN/2Frr/wBHPXPVMdkMKKKKoQUUUUAFFFFABRRRQAUUUUAFFFFABRRRQAUUUUAFFFFABRRRQAUUUUAFFFFABRRRQAUUUUAFFFFABRRRQAUUUUAFFFFABRRRQAUUUUAFFFFABRRRQAUUUUAFFFFABRRRQAUUUUAFFFFABRRRQAUUUUAFFFFABRRRQAUUUUAFFFFABRRRQAUUUUAFFFFABRRRQAUUUUAFFFFABRRRQAUUUUAFFFFABRRRQAUUUUAFFFFABRRRQAUUUUAf/9k=;" vertex="1" parent="1">
          <mxGeometry x="30" y="90" width="758" height="427" as="geometry" />
        </mxCell>
        <mxCell id="J7oyf5A0tCKoRQKSAwki-3" value="Задача 2. Составьте блок-схему на основе псевдокода" style="text;html=1;align=center;verticalAlign=middle;resizable=0;points=[];autosize=1;strokeColor=none;fillColor=none;fontSize=21;" vertex="1" parent="1">
          <mxGeometry x="1050" y="35" width="510" height="40" as="geometry" />
        </mxCell>
        <mxCell id="J7oyf5A0tCKoRQKSAwki-6" value="" style="edgeStyle=orthogonalEdgeStyle;rounded=0;orthogonalLoop=1;jettySize=auto;html=1;" edge="1" parent="1" source="J7oyf5A0tCKoRQKSAwki-4" target="J7oyf5A0tCKoRQKSAwki-5">
          <mxGeometry relative="1" as="geometry" />
        </mxCell>
        <mxCell id="J7oyf5A0tCKoRQKSAwki-4" value="Start" style="ellipse;whiteSpace=wrap;html=1;" vertex="1" parent="1">
          <mxGeometry x="1140" y="100" width="120" height="80" as="geometry" />
        </mxCell>
        <mxCell id="J7oyf5A0tCKoRQKSAwki-9" value="" style="edgeStyle=orthogonalEdgeStyle;rounded=0;orthogonalLoop=1;jettySize=auto;html=1;" edge="1" parent="1" source="J7oyf5A0tCKoRQKSAwki-5" target="J7oyf5A0tCKoRQKSAwki-8">
          <mxGeometry relative="1" as="geometry" />
        </mxCell>
        <mxCell id="J7oyf5A0tCKoRQKSAwki-5" value="numbers = [1, 8, 3, 8, 2, 6, 8, 8]&lt;div&gt;&amp;nbsp;index = 0&lt;/div&gt;&lt;div&gt;maximum = numbers[index]&lt;/div&gt;&lt;div&gt;count_maximal = 0&lt;/div&gt;" style="whiteSpace=wrap;html=1;" vertex="1" parent="1">
          <mxGeometry x="1110" y="236" width="180" height="60" as="geometry" />
        </mxCell>
        <mxCell id="J7oyf5A0tCKoRQKSAwki-11" value="" style="edgeStyle=orthogonalEdgeStyle;rounded=0;orthogonalLoop=1;jettySize=auto;html=1;" edge="1" parent="1" source="J7oyf5A0tCKoRQKSAwki-8" target="J7oyf5A0tCKoRQKSAwki-10">
          <mxGeometry relative="1" as="geometry" />
        </mxCell>
        <mxCell id="J7oyf5A0tCKoRQKSAwki-29" style="edgeStyle=orthogonalEdgeStyle;rounded=0;orthogonalLoop=1;jettySize=auto;html=1;entryX=0;entryY=0.5;entryDx=0;entryDy=0;" edge="1" parent="1" source="J7oyf5A0tCKoRQKSAwki-8" target="J7oyf5A0tCKoRQKSAwki-28">
          <mxGeometry relative="1" as="geometry" />
        </mxCell>
        <mxCell id="J7oyf5A0tCKoRQKSAwki-8" value="index &amp;lt; numbers.length" style="rhombus;whiteSpace=wrap;html=1;" vertex="1" parent="1">
          <mxGeometry x="1116" y="366" width="170" height="94" as="geometry" />
        </mxCell>
        <mxCell id="J7oyf5A0tCKoRQKSAwki-14" value="" style="edgeStyle=orthogonalEdgeStyle;rounded=0;orthogonalLoop=1;jettySize=auto;html=1;" edge="1" parent="1" source="J7oyf5A0tCKoRQKSAwki-10" target="J7oyf5A0tCKoRQKSAwki-13">
          <mxGeometry relative="1" as="geometry" />
        </mxCell>
        <mxCell id="J7oyf5A0tCKoRQKSAwki-17" value="" style="edgeStyle=orthogonalEdgeStyle;rounded=0;orthogonalLoop=1;jettySize=auto;html=1;" edge="1" parent="1" source="J7oyf5A0tCKoRQKSAwki-10" target="J7oyf5A0tCKoRQKSAwki-16">
          <mxGeometry relative="1" as="geometry" />
        </mxCell>
        <mxCell id="J7oyf5A0tCKoRQKSAwki-10" value="numbers[index] &amp;gt; maximum" style="rhombus;whiteSpace=wrap;html=1;" vertex="1" parent="1">
          <mxGeometry x="1116" y="540" width="170" height="94" as="geometry" />
        </mxCell>
        <mxCell id="J7oyf5A0tCKoRQKSAwki-12" value="Yes" style="text;html=1;align=center;verticalAlign=middle;resizable=0;points=[];autosize=1;strokeColor=none;fillColor=none;" vertex="1" parent="1">
          <mxGeometry x="1201" y="460" width="40" height="30" as="geometry" />
        </mxCell>
        <mxCell id="J7oyf5A0tCKoRQKSAwki-24" style="edgeStyle=orthogonalEdgeStyle;rounded=0;orthogonalLoop=1;jettySize=auto;html=1;entryX=0.25;entryY=0;entryDx=0;entryDy=0;" edge="1" parent="1" source="J7oyf5A0tCKoRQKSAwki-13" target="J7oyf5A0tCKoRQKSAwki-22">
          <mxGeometry relative="1" as="geometry" />
        </mxCell>
        <mxCell id="J7oyf5A0tCKoRQKSAwki-13" value="maximum = numbers[index]&lt;div&gt;count_maximal = 1&lt;/div&gt;" style="whiteSpace=wrap;html=1;" vertex="1" parent="1">
          <mxGeometry x="945" y="680" width="170" height="60" as="geometry" />
        </mxCell>
        <mxCell id="J7oyf5A0tCKoRQKSAwki-15" value="Yes" style="text;html=1;align=center;verticalAlign=middle;resizable=0;points=[];autosize=1;strokeColor=none;fillColor=none;" vertex="1" parent="1">
          <mxGeometry x="1080" y="585" width="40" height="30" as="geometry" />
        </mxCell>
        <mxCell id="J7oyf5A0tCKoRQKSAwki-20" value="" style="edgeStyle=orthogonalEdgeStyle;rounded=0;orthogonalLoop=1;jettySize=auto;html=1;" edge="1" parent="1" source="J7oyf5A0tCKoRQKSAwki-16" target="J7oyf5A0tCKoRQKSAwki-19">
          <mxGeometry relative="1" as="geometry" />
        </mxCell>
        <mxCell id="J7oyf5A0tCKoRQKSAwki-25" style="edgeStyle=orthogonalEdgeStyle;rounded=0;orthogonalLoop=1;jettySize=auto;html=1;entryX=1;entryY=0.75;entryDx=0;entryDy=0;" edge="1" parent="1" source="J7oyf5A0tCKoRQKSAwki-16" target="J7oyf5A0tCKoRQKSAwki-22">
          <mxGeometry relative="1" as="geometry">
            <Array as="points">
              <mxPoint x="1580" y="710" />
              <mxPoint x="1580" y="965" />
            </Array>
          </mxGeometry>
        </mxCell>
        <mxCell id="J7oyf5A0tCKoRQKSAwki-16" value="numbers[index] == maximum" style="rhombus;whiteSpace=wrap;html=1;" vertex="1" parent="1">
          <mxGeometry x="1350" y="663" width="170" height="94" as="geometry" />
        </mxCell>
        <mxCell id="J7oyf5A0tCKoRQKSAwki-18" value="No" style="text;html=1;align=center;verticalAlign=middle;resizable=0;points=[];autosize=1;strokeColor=none;fillColor=none;" vertex="1" parent="1">
          <mxGeometry x="1281" y="590" width="40" height="30" as="geometry" />
        </mxCell>
        <mxCell id="J7oyf5A0tCKoRQKSAwki-19" value="count_maximal = count_maximal + 1" style="whiteSpace=wrap;html=1;" vertex="1" parent="1">
          <mxGeometry x="1325" y="801" width="220" height="60" as="geometry" />
        </mxCell>
        <mxCell id="J7oyf5A0tCKoRQKSAwki-21" value="Yes" style="text;html=1;align=center;verticalAlign=middle;resizable=0;points=[];autosize=1;strokeColor=none;fillColor=none;" vertex="1" parent="1">
          <mxGeometry x="1440" y="750" width="40" height="30" as="geometry" />
        </mxCell>
        <mxCell id="J7oyf5A0tCKoRQKSAwki-27" style="edgeStyle=orthogonalEdgeStyle;rounded=0;orthogonalLoop=1;jettySize=auto;html=1;entryX=0;entryY=0.5;entryDx=0;entryDy=0;" edge="1" parent="1" source="J7oyf5A0tCKoRQKSAwki-22" target="J7oyf5A0tCKoRQKSAwki-8">
          <mxGeometry relative="1" as="geometry">
            <Array as="points">
              <mxPoint x="900" y="950" />
              <mxPoint x="900" y="413" />
            </Array>
          </mxGeometry>
        </mxCell>
        <mxCell id="J7oyf5A0tCKoRQKSAwki-22" value="index = index + 1" style="rounded=0;whiteSpace=wrap;html=1;" vertex="1" parent="1">
          <mxGeometry x="1141" y="920" width="120" height="60" as="geometry" />
        </mxCell>
        <mxCell id="J7oyf5A0tCKoRQKSAwki-23" style="edgeStyle=orthogonalEdgeStyle;rounded=0;orthogonalLoop=1;jettySize=auto;html=1;entryX=0.837;entryY=-0.008;entryDx=0;entryDy=0;entryPerimeter=0;" edge="1" parent="1" source="J7oyf5A0tCKoRQKSAwki-19" target="J7oyf5A0tCKoRQKSAwki-22">
          <mxGeometry relative="1" as="geometry" />
        </mxCell>
        <mxCell id="J7oyf5A0tCKoRQKSAwki-26" value="No" style="text;html=1;align=center;verticalAlign=middle;resizable=0;points=[];autosize=1;strokeColor=none;fillColor=none;" vertex="1" parent="1">
          <mxGeometry x="1520" y="680" width="40" height="30" as="geometry" />
        </mxCell>
        <mxCell id="J7oyf5A0tCKoRQKSAwki-31" value="" style="edgeStyle=orthogonalEdgeStyle;rounded=0;orthogonalLoop=1;jettySize=auto;html=1;" edge="1" parent="1" source="J7oyf5A0tCKoRQKSAwki-28" target="J7oyf5A0tCKoRQKSAwki-30">
          <mxGeometry relative="1" as="geometry" />
        </mxCell>
        <mxCell id="J7oyf5A0tCKoRQKSAwki-28" value="count_maximal" style="shape=document;whiteSpace=wrap;html=1;boundedLbl=1;" vertex="1" parent="1">
          <mxGeometry x="1360" y="373" width="120" height="80" as="geometry" />
        </mxCell>
        <mxCell id="J7oyf5A0tCKoRQKSAwki-30" value="Finish" style="ellipse;whiteSpace=wrap;html=1;" vertex="1" parent="1">
          <mxGeometry x="1560" y="373" width="120" height="80" as="geometry" />
        </mxCell>
      </root>
    </mxGraphModel>
  </diagram>
</mxfile>
